Nobile-Regular.ufo
<glyph name="quotedbl" format="1">
  <advance width="579"/>
  <unicode hex="0022"/>
  <outline>
    <contour>
      <point x="95" y="999" type="line"/>
      <point x="195" y="999" type="line"/>
      <point x="222" y="1418" type="line" smooth="yes"/>
      <point x="223" y="1437"/>
      <point x="222" y="1466"/>
      <point x="222" y="1486" type="curve"/>
      <point x="58" y="1486" type="line"/>
      <point x="58" y="1466"/>
      <point x="56" y="1437"/>
      <point x="58" y="1418" type="curve" smooth="yes"/>
    </contour>
    <contour>
      <point x="392" y="999" type="line"/>
      <point x="492" y="999" type="line"/>
      <point x="528" y="1418" type="line" smooth="yes"/>
      <point x="530" y="1437"/>
      <point x="528" y="1466"/>
      <point x="528" y="1486" type="curve"/>
      <point x="373" y="1486" type="line"/>
      <point x="373" y="1466"/>
      <point x="372" y="1437"/>
      <point x="373" y="1418" type="curve" smooth="yes"/>
    </contour>
  </outline>
</glyph>
<glyph name="dollar" format="1">
  <advance width="945"/>
  <unicode hex="0024"/>
  <outline>
    <component base="s" yOffset="123"/>
    <contour>
      <point x="349" y="-165" type="line"/>
      <point x="433" y="-165" type="line"/>
      <point x="618" y="1541" type="line"/>
      <point x="533" y="1541" type="line"/>
    </contour>
  </outline>
</glyph>
<glyph name="percent" format="1">
  <advance width="1739"/>
  <unicode hex="0025"/>
  <outline>
    <contour>
      <point x="428" y="837" type="curve" smooth="yes"/>
      <point x="319" y="837"/>
      <point x="250" y="943"/>
      <point x="250" y="1114" type="curve" smooth="yes"/>
      <point x="250" y="1293"/>
      <point x="319" y="1405"/>
      <point x="428" y="1405" type="curve" smooth="yes"/>
      <point x="537" y="1405"/>
      <point x="605" y="1293"/>
      <point x="605" y="1114" type="curve" smooth="yes"/>
      <point x="605" y="943"/>
      <point x="537" y="837"/>
    </contour>
    <contour>
      <point x="428" y="734" type="curve" smooth="yes"/>
      <point x="613" y="734"/>
      <point x="728" y="881"/>
      <point x="728" y="1114" type="curve" smooth="yes"/>
      <point x="728" y="1353"/>
      <point x="613" y="1502"/>
      <point x="428" y="1502" type="curve" smooth="yes"/>
      <point x="243" y="1502"/>
      <point x="127" y="1353"/>
      <point x="127" y="1114" type="curve" smooth="yes"/>
      <point x="127" y="881"/>
      <point x="243" y="734"/>
    </contour>
    <contour>
      <point x="513" y="-39" type="line"/>
      <point x="1406" y="1486" type="line"/>
      <point x="1299" y="1536" type="line"/>
      <point x="404" y="6" type="line"/>
    </contour>
    <contour>
      <point x="1355" y="86" type="curve" smooth="yes"/>
      <point x="1246" y="86"/>
      <point x="1177" y="192"/>
      <point x="1177" y="363" type="curve" smooth="yes"/>
      <point x="1177" y="543"/>
      <point x="1246" y="654"/>
      <point x="1355" y="654" type="curve" smooth="yes"/>
      <point x="1463" y="654"/>
      <point x="1531" y="543"/>
      <point x="1531" y="363" type="curve" smooth="yes"/>
      <point x="1531" y="192"/>
      <point x="1463" y="86"/>
    </contour>
    <contour>
      <point x="1355" y="-17" type="curve" smooth="yes"/>
      <point x="1539" y="-17"/>
      <point x="1655" y="130"/>
      <point x="1655" y="363" type="curve" smooth="yes"/>
      <point x="1655" y="602"/>
      <point x="1539" y="751"/>
      <point x="1355" y="751" type="curve" smooth="yes"/>
      <point x="1170" y="751"/>
      <point x="1053" y="602"/>
      <point x="1053" y="363" type="curve" smooth="yes"/>
      <point x="1053" y="130"/>
      <point x="1170" y="-17"/>
    </contour>
  </outline>
</glyph>
<glyph name="quotesingle" format="1">
  <advance width="571"/>
  <unicode hex="0027"/>
  <outline>
    <contour>
      <point x="235" y="999" type="line"/>
      <point x="335" y="999" type="line"/>
      <point x="371" y="1418" type="line" smooth="yes"/>
      <point x="373" y="1437"/>
      <point x="371" y="1466"/>
      <point x="371" y="1486" type="curve"/>
      <point x="198" y="1486" type="line"/>
      <point x="198" y="1466"/>
      <point x="196" y="1437"/>
      <point x="198" y="1418" type="curve" smooth="yes"/>
    </contour>
  </outline>
</glyph>
<glyph name="parenleft" format="1">
  <advance width="792"/>
  <unicode hex="0028"/>
  <outline>
    <contour>
      <point x="571" y="-171" type="curve"/>
      <point x="648" y="-74" type="line"/>
      <point x="472" y="93"/>
      <point x="383" y="397"/>
      <point x="383" y="716" type="curve" smooth="yes"/>
      <point x="383" y="1023"/>
      <point x="475" y="1346"/>
      <point x="662" y="1534" type="curve"/>
      <point x="560" y="1625" type="line"/>
      <point x="318" y="1421"/>
      <point x="197" y="1070"/>
      <point x="197" y="716" type="curve" smooth="yes"/>
      <point x="197" y="371"/>
      <point x="322" y="23"/>
    </contour>
  </outline>
</glyph>
<glyph name="period" format="1">
  <advance width="610"/>
  <unicode hex="002E"/>
  <outline>
    <contour>
      <point x="303" y="-16" type="curve" smooth="yes"/>
      <point x="363" y="-16"/>
      <point x="402" y="33"/>
      <point x="402" y="90" type="curve" smooth="yes"/>
      <point x="402" y="147"/>
      <point x="363" y="196"/>
      <point x="303" y="196" type="curve" smooth="yes"/>
      <point x="245" y="196"/>
      <point x="199" y="147"/>
      <point x="199" y="90" type="curve" smooth="yes"/>
      <point x="199" y="32"/>
      <point x="244" y="-16"/>
    </contour>
  </outline>
</glyph>
<glyph name="slash" format="1">
  <advance width="877"/>
  <unicode hex="002F"/>
  <outline>
    <contour>
      <point x="120" y="-163" type="line"/>
      <point x="819" y="1585" type="line"/>
      <point x="710" y="1628" type="line"/>
      <point x="11" y="-120" type="line"/>
    </contour>
  </outline>
</glyph>
<glyph name="zero" format="1">
  <advance width="1271"/>
  <unicode hex="0030"/>
  <outline>
    <contour>
      <point x="631" y="111" type="curve" smooth="yes"/>
      <point x="363" y="111"/>
      <point x="271" y="325"/>
      <point x="271" y="556" type="curve" smooth="yes"/>
      <point x="271" y="776"/>
      <point x="359" y="986"/>
      <point x="631" y="986" type="curve" smooth="yes"/>
      <point x="894" y="986"/>
      <point x="994" y="786"/>
      <point x="994" y="570" type="curve" smooth="yes"/>
      <point x="994" y="336"/>
      <point x="911" y="111"/>
    </contour>
    <contour>
      <point x="631" y="-20" type="curve" smooth="yes"/>
      <point x="977" y="-20"/>
      <point x="1166" y="235"/>
      <point x="1166" y="555" type="curve" smooth="yes"/>
      <point x="1166" y="865"/>
      <point x="979" y="1116"/>
      <point x="631" y="1116" type="curve" smooth="yes"/>
      <point x="281" y="1116"/>
      <point x="99" y="868"/>
      <point x="99" y="555" type="curve" smooth="yes"/>
      <point x="99" y="241"/>
      <point x="287" y="-20"/>
    </contour>
  </outline>
</glyph>
<glyph name="two" format="1">
  <advance width="1001"/>
  <unicode hex="0032"/>
  <outline>
    <contour>
      <point x="121" y="0" type="line"/>
      <point x="869" y="0" type="line"/>
      <point x="869" y="125" type="line"/>
      <point x="315" y="125" type="line"/>
      <point x="581" y="341" type="line" smooth="yes"/>
      <point x="734" y="464"/>
      <point x="868" y="614"/>
      <point x="868" y="784" type="curve" smooth="yes"/>
      <point x="868" y="1019"/>
      <point x="685" y="1116"/>
      <point x="483" y="1116" type="curve" smooth="yes"/>
      <point x="368" y="1116"/>
      <point x="251" y="1084"/>
      <point x="158" y="1029" type="curve"/>
      <point x="208" y="917" type="line"/>
      <point x="293" y="959"/>
      <point x="395" y="988"/>
      <point x="488" y="988" type="curve" smooth="yes"/>
      <point x="614" y="988"/>
      <point x="718" y="934"/>
      <point x="718" y="785" type="curve" smooth="yes"/>
      <point x="718" y="630"/>
      <point x="599" y="535"/>
      <point x="488" y="438" type="curve" smooth="yes"/>
      <point x="121" y="119" type="line"/>
    </contour>
  </outline>
</glyph>
<glyph name="three" format="1">
  <advance width="1109"/>
  <unicode hex="0033"/>
  <outline>
    <contour>
      <point x="803" y="155" type="curve" smooth="yes"/>
      <point x="803" y="-12"/>
      <point x="684" y="-76"/>
      <point x="529" y="-76" type="curve" smooth="yes"/>
      <point x="423" y="-76"/>
      <point x="296" y="-43"/>
      <point x="201" y="8" type="curve"/>
      <point x="151" y="-116" type="line"/>
      <point x="269" y="-172"/>
      <point x="399" y="-205"/>
      <point x="530" y="-205" type="curve" smooth="yes"/>
      <point x="738" y="-205"/>
      <point x="968" y="-102"/>
      <point x="968" y="137" type="curve" smooth="yes"/>
      <point x="969" y="336"/>
      <point x="846" y="455"/>
      <point x="659" y="494" type="curve"/>
      <point x="820" y="495"/>
      <point x="932" y="640"/>
      <point x="932" y="795" type="curve" smooth="yes"/>
      <point x="932" y="1034"/>
      <point x="718" y="1116"/>
      <point x="513" y="1116" type="curve" smooth="yes"/>
      <point x="404" y="1116"/>
      <point x="279" y="1083"/>
      <point x="181" y="1039" type="curve"/>
      <point x="227" y="916" type="line"/>
      <point x="313" y="959"/>
      <point x="409" y="984"/>
      <point x="508" y="984" type="curve" smooth="yes"/>
      <point x="653" y="984"/>
      <point x="779" y="944"/>
      <point x="779" y="775" type="curve" smooth="yes"/>
      <point x="779" y="605"/>
      <point x="627" y="558"/>
      <point x="485" y="558" type="curve"/>
      <point x="485" y="426" type="line"/>
      <point x="650" y="407"/>
      <point x="803" y="343"/>
    </contour>
  </outline>
</glyph>
<glyph name="five" format="1">
  <advance width="1130"/>
  <unicode hex="0035"/>
  <outline>
    <contour>
      <point x="520" y="-198" type="curve" smooth="yes"/>
      <point x="786" y="-198"/>
      <point x="979" y="-49"/>
      <point x="979" y="229" type="curve" smooth="yes"/>
      <point x="979" y="483"/>
      <point x="810" y="652"/>
      <point x="556" y="652" type="curve" smooth="yes"/>
      <point x="488" y="652"/>
      <point x="378" y="634"/>
      <point x="330" y="580" type="curve"/>
      <point x="330" y="957" type="line"/>
      <point x="897" y="957" type="line"/>
      <point x="897" y="1096" type="line"/>
      <point x="196" y="1096" type="line"/>
      <point x="196" y="502" type="line"/>
      <point x="259" y="438" type="line"/>
      <point x="339" y="477"/>
      <point x="446" y="526"/>
      <point x="540" y="526" type="curve" smooth="yes"/>
      <point x="729" y="526"/>
      <point x="821" y="405"/>
      <point x="821" y="225" type="curve" smooth="yes"/>
      <point x="821" y="29"/>
      <point x="712" y="-58"/>
      <point x="522" y="-58" type="curve" smooth="yes"/>
      <point x="417" y="-58"/>
      <point x="300" y="-24"/>
      <point x="209" y="24" type="curve"/>
      <point x="162" y="-109" type="line"/>
      <point x="280" y="-157"/>
      <point x="385" y="-198"/>
    </contour>
  </outline>
</glyph>
<glyph name="six" format="1">
  <advance width="1227"/>
  <unicode hex="0036"/>
  <outline>
    <contour>
      <point x="624" y="-70" type="curve" smooth="yes"/>
      <point x="899" y="-70"/>
      <point x="1092" y="112"/>
      <point x="1092" y="392" type="curve" smooth="yes"/>
      <point x="1092" y="653"/>
      <point x="912" y="822"/>
      <point x="656" y="822" type="curve" smooth="yes"/>
      <point x="531" y="822"/>
      <point x="414" y="782"/>
      <point x="334" y="683" type="curve"/>
      <point x="382" y="950"/>
      <point x="603" y="1128"/>
      <point x="860" y="1183" type="curve"/>
      <point x="821" y="1317" type="line"/>
      <point x="410" y="1220"/>
      <point x="150" y="902"/>
      <point x="150" y="477" type="curve" smooth="yes"/>
      <point x="150" y="171"/>
      <point x="293" y="-70"/>
    </contour>
    <contour>
      <point x="624" y="61" type="curve" smooth="yes"/>
      <point x="387" y="61"/>
      <point x="315" y="252"/>
      <point x="315" y="455" type="curve" smooth="yes"/>
      <point x="315" y="493"/>
      <point x="315" y="518"/>
      <point x="321" y="555" type="curve"/>
      <point x="387" y="629"/>
      <point x="496" y="697"/>
      <point x="655" y="697" type="curve" smooth="yes"/>
      <point x="835" y="697"/>
      <point x="930" y="565"/>
      <point x="930" y="391" type="curve" smooth="yes"/>
      <point x="930" y="205"/>
      <point x="819" y="61"/>
    </contour>
  </outline>
</glyph>
<glyph name="eight" format="1">
  <advance width="1206"/>
  <unicode hex="0038"/>
  <outline>
    <contour>
      <point x="602" y="-139" type="curve" smooth="yes"/>
      <point x="872" y="-139"/>
      <point x="1040" y="8"/>
      <point x="1040" y="241" type="curve" smooth="yes"/>
      <point x="1040" y="405"/>
      <point x="967" y="541"/>
      <point x="792" y="596" type="curve"/>
      <point x="938" y="645"/>
      <point x="1021" y="747"/>
      <point x="1021" y="908" type="curve" smooth="yes"/>
      <point x="1021" y="1120"/>
      <point x="860" y="1254"/>
      <point x="602" y="1254" type="curve" smooth="yes"/>
      <point x="338" y="1254"/>
      <point x="171" y="1120"/>
      <point x="171" y="908" type="curve" smooth="yes"/>
      <point x="171" y="750"/>
      <point x="254" y="645"/>
      <point x="400" y="598" type="curve"/>
      <point x="225" y="543"/>
      <point x="152" y="406"/>
      <point x="152" y="241" type="curve" smooth="yes"/>
      <point x="152" y="8"/>
      <point x="327" y="-139"/>
    </contour>
    <contour>
      <point x="602" y="-11" type="curve" smooth="yes"/>
      <point x="427" y="-11"/>
      <point x="317" y="87"/>
      <point x="317" y="241" type="curve" smooth="yes"/>
      <point x="317" y="418"/>
      <point x="431" y="541"/>
      <point x="602" y="541" type="curve" smooth="yes"/>
      <point x="771" y="541"/>
      <point x="875" y="411"/>
      <point x="875" y="241" type="curve" smooth="yes"/>
      <point x="875" y="87"/>
      <point x="770" y="-11"/>
    </contour>
    <contour>
      <point x="602" y="649" type="curve" smooth="yes"/>
      <point x="455" y="649"/>
      <point x="336" y="756"/>
      <point x="336" y="908" type="curve" smooth="yes"/>
      <point x="336" y="1044"/>
      <point x="438" y="1130"/>
      <point x="602" y="1130" type="curve" smooth="yes"/>
      <point x="758" y="1130"/>
      <point x="856" y="1044"/>
      <point x="856" y="908" type="curve" smooth="yes"/>
      <point x="856" y="757"/>
      <point x="748" y="649"/>
    </contour>
  </outline>
</glyph>
<glyph name="equal" format="1">
  <advance width="873"/>
  <unicode hex="003D"/>
  <outline>
    <contour>
      <point x="123" y="312" type="line"/>
      <point x="748" y="312" type="line"/>
      <point x="748" y="432" type="line"/>
      <point x="123" y="432" type="line"/>
    </contour>
    <contour>
      <point x="123" y="583" type="line"/>
      <point x="748" y="583" type="line"/>
      <point x="748" y="703" type="line"/>
      <point x="123" y="703" type="line"/>
    </contour>
  </outline>
</glyph>
<glyph name="greater" format="1">
  <advance width="1366"/>
  <unicode hex="003E"/>
  <outline>
    <contour>
      <point x="272" y="143" type="line"/>
      <point x="1167" y="708" type="line"/>
      <point x="272" y="1273" type="line"/>
      <point x="199" y="1171" type="line"/>
      <point x="913" y="708" type="line"/>
      <point x="199" y="244" type="line"/>
    </contour>
  </outline>
</glyph>
<glyph name="question" format="1">
  <advance width="1036"/>
  <unicode hex="003F"/>
  <outline>
    <contour>
      <point x="235" y="384" type="line"/>
      <point x="365" y="384" type="line"/>
      <point x="365" y="636" type="line"/>
      <point x="609" y="722"/>
      <point x="903" y="843"/>
      <point x="903" y="1145" type="curve" smooth="yes"/>
      <point x="903" y="1403"/>
      <point x="689" y="1497"/>
      <point x="462" y="1497" type="curve" smooth="yes"/>
      <point x="320" y="1497"/>
      <point x="172" y="1460"/>
      <point x="69" y="1404" type="curve"/>
      <point x="115" y="1281" type="line"/>
      <point x="216" y="1331"/>
      <point x="337" y="1364"/>
      <point x="446" y="1364" type="curve" smooth="yes"/>
      <point x="603" y="1364"/>
      <point x="728" y="1296"/>
      <point x="728" y="1127" type="curve" smooth="yes"/>
      <point x="728" y="890"/>
      <point x="416" y="791"/>
      <point x="235" y="729" type="curve"/>
    </contour>
    <contour>
      <point x="297" y="-17" type="curve" smooth="yes"/>
      <point x="367" y="-17"/>
      <point x="413" y="28"/>
      <point x="413" y="98" type="curve" smooth="yes"/>
      <point x="413" y="168"/>
      <point x="371" y="213"/>
      <point x="302" y="213" type="curve" smooth="yes"/>
      <point x="230" y="213"/>
      <point x="183" y="172"/>
      <point x="183" y="104" type="curve" smooth="yes"/>
      <point x="183" y="29"/>
      <point x="227" y="-17"/>
    </contour>
  </outline>
</glyph>
<glyph name="B" format="1">
  <advance width="1362"/>
  <unicode hex="0042"/>
  <outline>
    <contour>
      <point x="661" y="1485" type="move" name="top"/>
    </contour>
    <contour>
      <point x="181" y="0" type="line"/>
      <point x="594" y="0" type="line" smooth="yes"/>
      <point x="880" y="0"/>
      <point x="1232" y="44"/>
      <point x="1232" y="409" type="curve" smooth="yes"/>
      <point x="1232" y="658"/>
      <point x="1101" y="770"/>
      <point x="888" y="807" type="curve"/>
      <point x="1059" y="845"/>
      <point x="1155" y="919"/>
      <point x="1155" y="1119" type="curve" smooth="yes"/>
      <point x="1155" y="1477"/>
      <point x="820" y="1485"/>
      <point x="540" y="1485" type="curve" smooth="yes"/>
      <point x="181" y="1485" type="line"/>
    </contour>
    <contour>
      <point x="361" y="133" type="line"/>
      <point x="361" y="739" type="line"/>
      <point x="610" y="739" type="line" smooth="yes"/>
      <point x="836" y="739"/>
      <point x="1065" y="714"/>
      <point x="1065" y="438" type="curve" smooth="yes"/>
      <point x="1065" y="141"/>
      <point x="829" y="133"/>
      <point x="593" y="133" type="curve" smooth="yes"/>
    </contour>
    <contour>
      <point x="361" y="858" type="line"/>
      <point x="361" y="1354" type="line"/>
      <point x="543" y="1354" type="line" smooth="yes"/>
      <point x="724" y="1354"/>
      <point x="1004" y="1366"/>
      <point x="1004" y="1119" type="curve" smooth="yes"/>
      <point x="1004" y="880"/>
      <point x="803" y="858"/>
      <point x="607" y="858" type="curve" smooth="yes"/>
    </contour>
  </outline>
</glyph>
<glyph name="D" format="1">
  <advance width="1451"/>
  <unicode hex="0044"/>
  <outline>
    <contour>
      <point x="691" y="1485" type="move" name="top"/>
    </contour>
    <contour>
      <point x="361" y="133" type="line"/>
      <point x="361" y="1354" type="line"/>
      <point x="685" y="1354" type="line" smooth="yes"/>
      <point x="1051" y="1354"/>
      <point x="1136" y="1047"/>
      <point x="1136" y="743" type="curve" smooth="yes"/>
      <point x="1136" y="437"/>
      <point x="1054" y="133"/>
      <point x="685" y="133" type="curve" smooth="yes"/>
    </contour>
    <contour>
      <point x="181" y="0" type="line"/>
      <point x="684" y="0" type="line" smooth="yes"/>
      <point x="1149" y="0"/>
      <point x="1314" y="321"/>
      <point x="1314" y="742" type="curve" smooth="yes"/>
      <point x="1314" y="1163"/>
      <point x="1150" y="1485"/>
      <point x="684" y="1485" type="curve" smooth="yes"/>
      <point x="181" y="1485" type="line"/>
    </contour>
  </outline>
</glyph>
<glyph name="E" format="1">
  <advance width="1192"/>
  <unicode hex="0045"/>
  <outline>
    <contour>
      <point x="702" y="0" type="move" name="bot"/>
    </contour>
    <contour>
      <point x="690" y="1485" type="move" name="top"/>
    </contour>
    <contour>
      <point x="181" y="0" type="line"/>
      <point x="1069" y="0" type="line"/>
      <point x="1069" y="133" type="line"/>
      <point x="361" y="133" type="line"/>
      <point x="361" y="704" type="line"/>
      <point x="976" y="704" type="line"/>
      <point x="976" y="822" type="line"/>
      <point x="361" y="822" type="line"/>
      <point x="361" y="1353" type="line"/>
      <point x="1081" y="1353" type="line"/>
      <point x="1081" y="1485" type="line"/>
      <point x="181" y="1485" type="line"/>
    </contour>
  </outline>
</glyph>
<glyph name="F" format="1">
  <advance width="1155"/>
  <unicode hex="0046"/>
  <outline>
    <contour>
      <point x="655" y="1485" type="move" name="top"/>
    </contour>
    <contour>
      <point x="181" y="0" type="line"/>
      <point x="363" y="0" type="line"/>
      <point x="363" y="718" type="line"/>
      <point x="980" y="718" type="line"/>
      <point x="980" y="827" type="line"/>
      <point x="363" y="827" type="line"/>
      <point x="363" y="1354" type="line"/>
      <point x="1037" y="1354" type="line"/>
      <point x="1037" y="1485" type="line"/>
      <point x="181" y="1485" type="line"/>
    </contour>
  </outline>
</glyph>
<glyph name="J" format="1">
  <advance width="761"/>
  <unicode hex="004A"/>
  <outline>
    <contour>
      <point x="461" y="1485" type="move" name="top"/>
    </contour>
    <contour>
      <point x="90" y="-112" type="line"/>
      <point x="507" y="-74"/>
      <point x="554" y="122"/>
      <point x="554" y="445" type="curve" smooth="yes"/>
      <point x="554" y="1485" type="line"/>
      <point x="375" y="1485" type="line"/>
      <point x="375" y="441" type="line" smooth="yes"/>
      <point x="375" y="181"/>
      <point x="369" y="76"/>
      <point x="79" y="33" type="curve"/>
    </contour>
  </outline>
</glyph>
<glyph name="L" format="1">
  <advance width="1086"/>
  <unicode hex="004C"/>
  <outline>
    <contour>
      <point x="651" y="0" type="move" name="bot"/>
    </contour>
    <contour>
      <point x="364" y="1098" type="move" name="caron.alt"/>
    </contour>
    <contour>
      <point x="298" y="1485" type="move" name="top"/>
    </contour>
    <contour>
      <point x="181" y="0" type="line"/>
      <point x="1064" y="0" type="line"/>
      <point x="1064" y="132" type="line"/>
      <point x="361" y="132" type="line"/>
      <point x="361" y="1485" type="line"/>
      <point x="181" y="1485" type="line"/>
    </contour>
  </outline>
</glyph>
<glyph name="M" format="1">
  <advance width="1799"/>
  <unicode hex="004D"/>
  <outline>
    <contour>
      <point x="905" y="1485" type="move" name="top"/>
    </contour>
    <contour>
      <point x="181" y="0" type="line"/>
      <point x="342" y="0" type="line"/>
      <point x="342" y="1264" type="line"/>
      <point x="838" y="106" type="line"/>
      <point x="954" y="106" type="line"/>
      <point x="1458" y="1264" type="line"/>
      <point x="1458" y="0" type="line"/>
      <point x="1618" y="0" type="line"/>
      <point x="1618" y="1485" type="line"/>
      <point x="1395" y="1485" type="line"/>
      <point x="900" y="308" type="line"/>
      <point x="404" y="1485" type="line"/>
      <point x="181" y="1485" type="line"/>
    </contour>
  </outline>
</glyph>
<glyph name="O" format="1">
  <advance width="1504"/>
  <unicode hex="004F"/>
  <outline>
    <contour>
      <point x="752" y="1488" type="move" name="top"/>
    </contour>
    <contour>
      <point x="751" y="120" type="curve" smooth="yes"/>
      <point x="389" y="120"/>
      <point x="317" y="436"/>
      <point x="317" y="738" type="curve" smooth="yes"/>
      <point x="317" y="1037"/>
      <point x="389" y="1364"/>
      <point x="751" y="1364" type="curve" smooth="yes"/>
      <point x="1114" y="1364"/>
      <point x="1187" y="1039"/>
      <point x="1187" y="738" type="curve" smooth="yes"/>
      <point x="1187" y="436"/>
      <point x="1111" y="120"/>
    </contour>
    <contour>
      <point x="751" y="-20" type="curve" smooth="yes"/>
      <point x="1202" y="-20"/>
      <point x="1367" y="324"/>
      <point x="1367" y="738" type="curve" smooth="yes"/>
      <point x="1367" y="1161"/>
      <point x="1206" y="1505"/>
      <point x="751" y="1505" type="curve" smooth="yes"/>
      <point x="305" y="1505"/>
      <point x="137" y="1141"/>
      <point x="137" y="738" type="curve" smooth="yes"/>
      <point x="137" y="324"/>
      <point x="302" y="-20"/>
    </contour>
  </outline>
</glyph>
<glyph name="R" format="1">
  <advance width="1407"/>
  <unicode hex="0052"/>
  <outline>
    <contour>
      <point x="712" y="0" type="move" name="bot"/>
    </contour>
    <contour>
      <point x="683" y="1485" type="move" name="top"/>
    </contour>
    <contour>
      <point x="181" y="0" type="line"/>
      <point x="361" y="0" type="line"/>
      <point x="361" y="690" type="line"/>
      <point x="660" y="690" type="line" smooth="yes"/>
      <point x="982" y="690"/>
      <point x="1029" y="641"/>
      <point x="1057" y="389" type="curve" smooth="yes"/>
      <point x="1100" y="0" type="line"/>
      <point x="1261" y="0" type="line"/>
      <point x="1220" y="410" type="line" smooth="yes"/>
      <point x="1198" y="641"/>
      <point x="1132" y="747"/>
      <point x="954" y="760" type="curve"/>
      <point x="1127" y="788"/>
      <point x="1230" y="909"/>
      <point x="1230" y="1092" type="curve" smooth="yes"/>
      <point x="1230" y="1484"/>
      <point x="909" y="1485"/>
      <point x="566" y="1485" type="curve" smooth="yes"/>
      <point x="181" y="1485" type="line"/>
    </contour>
    <contour>
      <point x="361" y="809" type="line"/>
      <point x="361" y="1354" type="line"/>
      <point x="566" y="1354" type="line" smooth="yes"/>
      <point x="823" y="1354"/>
      <point x="1073" y="1378"/>
      <point x="1073" y="1083" type="curve" smooth="yes"/>
      <point x="1073" y="832"/>
      <point x="846" y="809"/>
      <point x="655" y="809" type="curve" smooth="yes"/>
    </contour>
  </outline>
</glyph>
<glyph name="S" format="1">
  <advance width="1180"/>
  <unicode hex="0053"/>
  <outline>
    <contour>
      <point x="583" y="-3" type="move" name="bot"/>
    </contour>
    <contour>
      <point x="599" y="1488" type="move" name="top"/>
    </contour>
    <contour>
      <point x="931" y="391" type="curve" smooth="yes"/>
      <point x="931" y="181"/>
      <point x="790" y="121"/>
      <point x="593" y="121" type="curve" smooth="yes"/>
      <point x="404" y="121"/>
      <point x="227" y="209"/>
      <point x="172" y="246" type="curve"/>
      <point x="112" y="112" type="line"/>
      <point x="225" y="42"/>
      <point x="451" y="-20"/>
      <point x="587" y="-20" type="curve" smooth="yes"/>
      <point x="884" y="-20"/>
      <point x="1095" y="98"/>
      <point x="1095" y="389" type="curve" smooth="yes"/>
      <point x="1095" y="677"/>
      <point x="941" y="746"/>
      <point x="710" y="830" type="curve" smooth="yes"/>
      <point x="518" y="900" type="line" smooth="yes"/>
      <point x="361" y="956"/>
      <point x="273" y="998"/>
      <point x="273" y="1147" type="curve" smooth="yes"/>
      <point x="273" y="1302"/>
      <point x="420" y="1365"/>
      <point x="585" y="1365" type="curve" smooth="yes"/>
      <point x="721" y="1365"/>
      <point x="867" y="1325"/>
      <point x="957" y="1265" type="curve"/>
      <point x="1014" y="1389" type="line"/>
      <point x="886" y="1473"/>
      <point x="732" y="1505"/>
      <point x="572" y="1505" type="curve" smooth="yes"/>
      <point x="312" y="1505"/>
      <point x="106" y="1380"/>
      <point x="106" y="1122" type="curve" smooth="yes"/>
      <point x="106" y="886"/>
      <point x="257" y="820"/>
      <point x="446" y="754" type="curve" smooth="yes"/>
      <point x="672" y="675" type="line" smooth="yes"/>
      <point x="873" y="605"/>
      <point x="932" y="555"/>
    </contour>
  </outline>
</glyph>
<glyph name="T" format="1">
  <advance width="1049"/>
  <unicode hex="0054"/>
  <outline>
    <contour>
      <point x="533" y="0" type="move" name="bot"/>
    </contour>
    <contour>
      <point x="546" y="1485" type="move" name="top"/>
    </contour>
    <contour>
      <point x="445" y="0" type="line"/>
      <point x="619" y="0" type="line"/>
      <point x="619" y="1354" type="line"/>
      <point x="1051" y="1354" type="line"/>
      <point x="1051" y="1485" type="line"/>
      <point x="11" y="1485" type="line"/>
      <point x="11" y="1354" type="line"/>
      <point x="445" y="1354" type="line"/>
    </contour>
  </outline>
</glyph>
<glyph name="Y" format="1">
  <advance width="1167"/>
  <unicode hex="0059"/>
  <outline>
    <contour>
      <point x="602" y="1485" type="move" name="top"/>
    </contour>
    <contour>
      <point x="494" y="0" type="line"/>
      <point x="669" y="0" type="line"/>
      <point x="669" y="594" type="line"/>
      <point x="1152" y="1485" type="line"/>
      <point x="977" y="1485" type="line"/>
      <point x="582" y="770" type="line"/>
      <point x="192" y="1485" type="line"/>
      <point x="15" y="1485" type="line"/>
      <point x="494" y="594" type="line"/>
    </contour>
  </outline>
</glyph>
<glyph name="bracketleft" format="1">
  <advance width="886"/>
  <unicode hex="005B"/>
  <outline>
    <contour>
      <point x="170" y="-188" type="line"/>
      <point x="793" y="-188" type="line"/>
      <point x="793" y="-55" type="line"/>
      <point x="349" y="-55" type="line"/>
      <point x="349" y="1485" type="line"/>
      <point x="793" y="1485" type="line"/>
      <point x="793" y="1617" type="line"/>
      <point x="170" y="1617" type="line"/>
    </contour>
  </outline>
</glyph>
<glyph name="asciicircum" format="1">
  <advance width="1055"/>
  <unicode hex="005E"/>
  <outline>
    <contour>
      <point x="57" y="565" type="line"/>
      <point x="212" y="565" type="line"/>
      <point x="528" y="1272" type="line"/>
      <point x="843" y="565" type="line"/>
      <point x="998" y="565" type="line"/>
      <point x="599" y="1485" type="line"/>
      <point x="457" y="1485" type="line"/>
    </contour>
  </outline>
</glyph>
<glyph name="a" format="1">
  <advance width="1146"/>
  <unicode hex="0061"/>
  <outline>
    <contour>
      <point x="551" y="1099" type="move" name="top"/>
    </contour>
    <contour>
      <point x="104" y="321" type="curve" smooth="yes"/>
      <point x="107" y="101"/>
      <point x="239" y="-20"/>
      <point x="463" y="-20" type="curve" smooth="yes"/>
      <point x="620" y="-20"/>
      <point x="743" y="41"/>
      <point x="836" y="168" type="curve"/>
      <point x="862" y="0" type="line"/>
      <point x="991" y="0" type="line"/>
      <point x="991" y="647" type="line" smooth="yes"/>
      <point x="991" y="979"/>
      <point x="897" y="1116"/>
      <point x="554" y="1116" type="curve" smooth="yes"/>
      <point x="361" y="1116"/>
      <point x="222" y="1061"/>
      <point x="151" y="1026" type="curve"/>
      <point x="198" y="908" type="line"/>
      <point x="259" y="936"/>
      <point x="382" y="985"/>
      <point x="566" y="985" type="curve" smooth="yes"/>
      <point x="793" y="985"/>
      <point x="816" y="869"/>
      <point x="816" y="671" type="curve" smooth="yes"/>
      <point x="816" y="630" type="line"/>
      <point x="745" y="648"/>
      <point x="633" y="663"/>
      <point x="531" y="663" type="curve" smooth="yes"/>
      <point x="283" y="663"/>
      <point x="101" y="565"/>
    </contour>
    <contour>
      <point x="503" y="106" type="curve" smooth="yes"/>
      <point x="358" y="106"/>
      <point x="272" y="179"/>
      <point x="272" y="334" type="curve" smooth="yes"/>
      <point x="272" y="514"/>
      <point x="411" y="547"/>
      <point x="575" y="547" type="curve" smooth="yes"/>
      <point x="704" y="547"/>
      <point x="773" y="532"/>
      <point x="816" y="522" type="curve"/>
      <point x="816" y="257" type="line"/>
      <point x="729" y="175"/>
      <point x="626" y="106"/>
    </contour>
  </outline>
</glyph>
<glyph name="b" format="1">
  <advance width="1237"/>
  <unicode hex="0062"/>
  <outline>
    <contour>
      <point x="669" y="1099" type="move" name="top"/>
    </contour>
    <contour>
      <point x="656" y="-20" type="curve" smooth="yes"/>
      <point x="981" y="-20"/>
      <point x="1124" y="261"/>
      <point x="1124" y="545" type="curve" smooth="yes"/>
      <point x="1124" y="869"/>
      <point x="977" y="1116"/>
      <point x="680" y="1116" type="curve" smooth="yes"/>
      <point x="536" y="1116"/>
      <point x="420" y="1060"/>
      <point x="339" y="977" type="curve"/>
      <point x="339" y="1519" type="line"/>
      <point x="164" y="1486" type="line"/>
      <point x="164" y="0" type="line"/>
      <point x="293" y="0" type="line"/>
      <point x="319" y="133" type="line"/>
      <point x="389" y="52"/>
      <point x="495" y="-20"/>
    </contour>
    <contour>
      <point x="662" y="107" type="curve" smooth="yes"/>
      <point x="506" y="107"/>
      <point x="410" y="160"/>
      <point x="339" y="246" type="curve"/>
      <point x="339" y="858" type="line"/>
      <point x="422" y="933"/>
      <point x="530" y="984"/>
      <point x="650" y="984" type="curve" smooth="yes"/>
      <point x="853" y="984"/>
      <point x="956" y="827"/>
      <point x="956" y="549" type="curve" smooth="yes"/>
      <point x="956" y="347"/>
      <point x="897" y="107"/>
    </contour>
  </outline>
</glyph>
<glyph name="c" format="1">
  <advance width="1035"/>
  <unicode hex="0063"/>
  <outline>
    <contour>
      <point x="615" y="-3" type="move" name="bot"/>
    </contour>
    <contour>
      <point x="577" y="1099" type="move" name="top"/>
    </contour>
    <contour>
      <point x="612" y="1116" type="curve" smooth="yes"/>
      <point x="290" y="1116"/>
      <point x="114" y="855"/>
      <point x="114" y="549" type="curve" smooth="yes"/>
      <point x="114" y="241"/>
      <point x="298" y="-20"/>
      <point x="631" y="-20" type="curve" smooth="yes"/>
      <point x="751" y="-20"/>
      <point x="858" y="20"/>
      <point x="955" y="102" type="curve"/>
      <point x="900" y="212" type="line"/>
      <point x="828" y="153"/>
      <point x="738" y="107"/>
      <point x="635" y="107" type="curve" smooth="yes"/>
      <point x="389" y="107"/>
      <point x="287" y="330"/>
      <point x="287" y="545" type="curve" smooth="yes"/>
      <point x="287" y="762"/>
      <point x="376" y="985"/>
      <point x="617" y="986" type="curve" smooth="yes"/>
      <point x="721" y="986"/>
      <point x="824" y="951"/>
      <point x="902" y="880" type="curve"/>
      <point x="955" y="995" type="line"/>
      <point x="853" y="1078"/>
      <point x="738" y="1116"/>
    </contour>
  </outline>
</glyph>
<glyph name="d" format="1">
  <advance width="1223"/>
  <unicode hex="0064"/>
  <outline>
    <contour>
      <point x="933" y="1298" type="move" name="mid"/>
    </contour>
    <contour>
      <point x="955" y="1098" type="move" name="caron.alt"/>
    </contour>
    <contour>
      <point x="570" y="1099" type="move" name="top"/>
    </contour>
    <contour>
      <point x="581" y="-20" type="curve" smooth="yes"/>
      <point x="734" y="-20"/>
      <point x="838" y="46"/>
      <point x="908" y="121" type="curve"/>
      <point x="930" y="0" type="line"/>
      <point x="1059" y="0" type="line"/>
      <point x="1059" y="1519" type="line"/>
      <point x="885" y="1486" type="line"/>
      <point x="885" y="991" type="line"/>
      <point x="805" y="1065"/>
      <point x="693" y="1116"/>
      <point x="557" y="1116" type="curve" smooth="yes"/>
      <point x="260" y="1116"/>
      <point x="113" y="870"/>
      <point x="113" y="545" type="curve" smooth="yes"/>
      <point x="113" y="261"/>
      <point x="257" y="-20"/>
    </contour>
    <contour>
      <point x="568" y="107" type="curve" smooth="yes"/>
      <point x="333" y="124"/>
      <point x="281" y="365"/>
      <point x="281" y="549" type="curve" smooth="yes"/>
      <point x="281" y="827"/>
      <point x="384" y="984"/>
      <point x="587" y="984" type="curve" smooth="yes"/>
      <point x="701" y="984"/>
      <point x="803" y="939"/>
      <point x="885" y="869" type="curve"/>
      <point x="886" y="236" type="line"/>
      <point x="811" y="156"/>
      <point x="717" y="96"/>
    </contour>
  </outline>
</glyph>
<glyph name="f" format="1">
  <advance width="795"/>
  <unicode hex="0066"/>
  <outline>
    <contour>
      <point x="334" y="1485" type="move" name="top"/>
    </contour>
    <contour>
      <point x="602" y="1548" type="curve" smooth="yes"/>
      <point x="453" y="1552"/>
      <point x="277" y="1472"/>
      <point x="277" y="1183" type="curve" smooth="yes"/>
      <point x="277" y="1096" type="line"/>
      <point x="86" y="1096" type="line"/>
      <point x="86" y="982" type="line"/>
      <point x="277" y="982" type="line"/>
      <point x="277" y="0" type="line"/>
      <point x="448" y="0" type="line"/>
      <point x="448" y="982" type="line"/>
      <point x="774" y="982" type="line"/>
      <point x="774" y="1096" type="line"/>
      <point x="448" y="1096" type="line"/>
      <point x="448" y="1176" type="line" smooth="yes"/>
      <point x="448" y="1394"/>
      <point x="549" y="1418"/>
      <point x="620" y="1419" type="curve" smooth="yes"/>
      <point x="658" y="1420"/>
      <point x="722" y="1404"/>
      <point x="769" y="1386" type="curve"/>
      <point x="806" y="1502" type="line"/>
      <point x="740" y="1529"/>
      <point x="669" y="1546"/>
    </contour>
  </outline>
</glyph>
<glyph name="k" format="1">
  <advance width="1094"/>
  <unicode hex="006B"/>
  <outline>
    <contour>
      <point x="603" y="0" type="move" name="bot"/>
    </contour>
    <contour>
      <point x="603" y="1098" type="move" name="top"/>
    </contour>
    <contour>
      <point x="164" y="0" type="line"/>
      <point x="336" y="0" type="line"/>
      <point x="336" y="453" type="line"/>
      <point x="435" y="544" type="line"/>
      <point x="890" y="0" type="line"/>
      <point x="1082" y="0" type="line"/>
      <point x="563" y="618" type="line"/>
      <point x="1039" y="1096" type="line"/>
      <point x="836" y="1096" type="line"/>
      <point x="336" y="601" type="line"/>
      <point x="336" y="1521" type="line"/>
      <point x="164" y="1486" type="line"/>
    </contour>
  </outline>
</glyph>
<glyph name="l" format="1">
  <advance width="522"/>
  <unicode hex="006C"/>
  <outline>
    <contour>
      <point x="313" y="1098" type="move" name="caron.alt"/>
    </contour>
    <contour>
      <point x="271" y="1485" type="move" name="top"/>
    </contour>
    <contour>
      <point x="179" y="0" type="line"/>
      <point x="350" y="0" type="line"/>
      <point x="350" y="1521" type="line"/>
      <point x="179" y="1486" type="line"/>
    </contour>
  </outline>
</glyph>
<glyph name="o" format="1">
  <advance width="1228"/>
  <unicode hex="006F"/>
  <outline>
    <contour>
      <point x="617" y="1098" type="move" name="top"/>
    </contour>
    <contour>
      <point x="614" y="113" type="curve" smooth="yes"/>
      <point x="377" y="113"/>
      <point x="287" y="332"/>
      <point x="287" y="551" type="curve" smooth="yes"/>
      <point x="287" y="767"/>
      <point x="375" y="982"/>
      <point x="614" y="982" type="curve" smooth="yes"/>
      <point x="854" y="982"/>
      <point x="942" y="767"/>
      <point x="942" y="551" type="curve" smooth="yes"/>
      <point x="942" y="332"/>
      <point x="852" y="113"/>
    </contour>
    <contour>
      <point x="614" y="-20" type="curve" smooth="yes"/>
      <point x="951" y="-20"/>
      <point x="1115" y="235"/>
      <point x="1115" y="547" type="curve" smooth="yes"/>
      <point x="1115" y="858"/>
      <point x="951" y="1115"/>
      <point x="614" y="1115" type="curve" smooth="yes"/>
      <point x="277" y="1115"/>
      <point x="113" y="858"/>
      <point x="113" y="547" type="curve" smooth="yes"/>
      <point x="113" y="235"/>
      <point x="277" y="-20"/>
    </contour>
  </outline>
</glyph>
<glyph name="r" format="1">
  <advance width="767"/>
  <unicode hex="0072"/>
  <outline>
    <contour>
      <point x="434" y="0" type="move" name="bot"/>
    </contour>
    <contour>
      <point x="439" y="1098" type="move" name="top"/>
    </contour>
    <contour>
      <point x="166" y="0" type="line"/>
      <point x="337" y="0" type="line"/>
      <point x="337" y="830" type="line"/>
      <point x="421" y="893"/>
      <point x="541" y="955"/>
      <point x="698" y="967" type="curve"/>
      <point x="682" y="1109" type="line"/>
      <point x="594" y="1109"/>
      <point x="440" y="1051"/>
      <point x="322" y="923" type="curve"/>
      <point x="295" y="1096" type="line"/>
      <point x="166" y="1096" type="line"/>
    </contour>
  </outline>
</glyph>
<glyph name="t" format="1">
  <advance width="800"/>
  <unicode hex="0074"/>
  <outline>
    <contour>
      <point x="478" y="0" type="move" name="bot"/>
    </contour>
    <contour>
      <point x="362" y="1384" type="move" name="caron.alt"/>
    </contour>
    <contour>
      <point x="292" y="1480" type="move" name="top"/>
    </contour>
    <contour>
      <point x="507" y="-8" type="curve" smooth="yes"/>
      <point x="585" y="-10"/>
      <point x="668" y="0"/>
      <point x="738" y="32" type="curve"/>
      <point x="718" y="151" type="line"/>
      <point x="659" y="132"/>
      <point x="609" y="121"/>
      <point x="560" y="121" type="curve" smooth="yes"/>
      <point x="431" y="121"/>
      <point x="412" y="199"/>
      <point x="412" y="268" type="curve" smooth="yes"/>
      <point x="412" y="982" type="line"/>
      <point x="725" y="982" type="line"/>
      <point x="725" y="1096" type="line"/>
      <point x="412" y="1096" type="line"/>
      <point x="412" y="1480" type="line"/>
      <point x="262" y="1439" type="line"/>
      <point x="243" y="1096" type="line"/>
      <point x="65" y="1096" type="line"/>
      <point x="65" y="982" type="line"/>
      <point x="241" y="982" type="line"/>
      <point x="241" y="270" type="line" smooth="yes"/>
      <point x="241" y="97"/>
      <point x="331" y="-3"/>
    </contour>
  </outline>
</glyph>
<glyph name="u" format="1">
  <advance width="1240"/>
  <unicode hex="0075"/>
  <outline>
    <contour>
      <point x="624" y="1096" type="move" name="top"/>
    </contour>
    <contour>
      <point x="538" y="-20" type="curve" smooth="yes"/>
      <point x="731" y="-20"/>
      <point x="846" y="70"/>
      <point x="922" y="154" type="curve"/>
      <point x="948" y="0" type="line"/>
      <point x="1077" y="0" type="line"/>
      <point x="1077" y="1096" type="line"/>
      <point x="901" y="1096" type="line"/>
      <point x="901" y="277" type="line"/>
      <point x="811" y="187"/>
      <point x="728" y="113"/>
      <point x="548" y="113" type="curve" smooth="yes"/>
      <point x="372" y="113"/>
      <point x="330" y="245"/>
      <point x="330" y="401" type="curve" smooth="yes"/>
      <point x="330" y="1096" type="line"/>
      <point x="155" y="1096" type="line"/>
      <point x="155" y="401" type="line" smooth="yes"/>
      <point x="155" y="132"/>
      <point x="271" y="-20"/>
    </contour>
  </outline>
</glyph>
<glyph name="v" format="1">
  <advance width="1080"/>
  <unicode hex="0076"/>
  <outline>
    <contour>
      <point x="457" y="0" type="line"/>
      <point x="623" y="0" type="line"/>
      <point x="1020" y="1096" type="line"/>
      <point x="854" y="1096" type="line"/>
      <point x="547" y="198" type="line"/>
      <point x="233" y="1096" type="line"/>
      <point x="59" y="1096" type="line"/>
    </contour>
  </outline>
</glyph>
<glyph name="w" format="1">
  <advance width="1584"/>
  <unicode hex="0077"/>
  <outline>
    <contour>
      <point x="801" y="1096" type="move" name="top"/>
    </contour>
    <contour>
      <point x="1044" y="0" type="line"/>
      <point x="1230" y="0" type="line"/>
      <point x="1524" y="1096" type="line"/>
      <point x="1359" y="1096" type="line"/>
      <point x="1142" y="140" type="line"/>
      <point x="893" y="1096" type="line"/>
      <point x="707" y="1096" type="line"/>
      <point x="444" y="142" type="line"/>
      <point x="222" y="1096" type="line"/>
      <point x="61" y="1096" type="line"/>
      <point x="349" y="0" type="line"/>
      <point x="533" y="0" type="line"/>
      <point x="800" y="946" type="line"/>
    </contour>
  </outline>
</glyph>
<glyph name="x" format="1">
  <advance width="1047"/>
  <unicode hex="0078"/>
  <outline>
    <contour>
      <point x="65" y="0" type="line"/>
      <point x="243" y="0" type="line"/>
      <point x="525" y="441" type="line"/>
      <point x="797" y="0" type="line"/>
      <point x="973" y="0" type="line"/>
      <point x="611" y="549" type="line"/>
      <point x="979" y="1096" type="line"/>
      <point x="802" y="1096" type="line"/>
      <point x="519" y="667" type="line"/>
      <point x="238" y="1096" type="line"/>
      <point x="60" y="1096" type="line"/>
      <point x="432" y="549" type="line"/>
    </contour>
  </outline>
</glyph>
<glyph name="z" format="1">
  <advance width="936"/>
  <unicode hex="007A"/>
  <outline>
    <contour>
      <point x="499" y="1096" type="move" name="top"/>
    </contour>
    <contour>
      <point x="103" y="0" type="line"/>
      <point x="834" y="0" type="line"/>
      <point x="834" y="133" type="line"/>
      <point x="288" y="133" type="line"/>
      <point x="844" y="980" type="line"/>
      <point x="844" y="1096" type="line"/>
      <point x="132" y="1096" type="line"/>
      <point x="132" y="967" type="line"/>
      <point x="670" y="967" type="line"/>
      <point x="103" y="126" type="line"/>
    </contour>
  </outline>
</glyph>
<glyph name="braceleft" format="1">
  <advance width="801"/>
  <unicode hex="007B"/>
  <outline>
    <contour>
      <point x="695" y="-158" type="curve"/>
      <point x="695" y="-39" type="line"/>
      <point x="530" y="-38"/>
      <point x="474" y="20"/>
      <point x="471" y="258" type="curve" smooth="yes"/>
      <point x="467" y="575"/>
      <point x="431" y="667"/>
      <point x="227" y="691" type="curve"/>
      <point x="431" y="714"/>
      <point x="467" y="806"/>
      <point x="471" y="1123" type="curve" smooth="yes"/>
      <point x="474" y="1363"/>
      <point x="533" y="1420"/>
      <point x="695" y="1421" type="curve"/>
      <point x="695" y="1540" type="line"/>
      <point x="392" y="1540"/>
      <point x="295" y="1468"/>
      <point x="295" y="1098" type="curve" smooth="yes"/>
      <point x="295" y="803"/>
      <point x="249" y="768"/>
      <point x="90" y="768" type="curve"/>
      <point x="90" y="614" type="line"/>
      <point x="246" y="614"/>
      <point x="295" y="578"/>
      <point x="295" y="284" type="curve" smooth="yes"/>
      <point x="295" y="-86"/>
      <point x="392" y="-158"/>
    </contour>
  </outline>
</glyph>
<glyph name="asciitilde" format="1">
  <advance width="973"/>
  <unicode hex="007E"/>
  <outline>
    <contour>
      <point x="129" y="598" type="curve"/>
      <point x="198" y="598" type="line"/>
      <point x="198" y="681"/>
      <point x="226" y="709"/>
      <point x="274" y="709" type="curve" smooth="yes"/>
      <point x="371" y="709"/>
      <point x="547" y="594"/>
      <point x="725" y="594" type="curve" smooth="yes"/>
      <point x="852" y="594"/>
      <point x="876" y="686"/>
      <point x="876" y="828" type="curve"/>
      <point x="806" y="828" type="line"/>
      <point x="806" y="748"/>
      <point x="780" y="722"/>
      <point x="736" y="722" type="curve" smooth="yes"/>
      <point x="645" y="722"/>
      <point x="474" y="839"/>
      <point x="297" y="839" type="curve" smooth="yes"/>
      <point x="153" y="839"/>
      <point x="129" y="737"/>
    </contour>
  </outline>
</glyph>
<glyph name="cent" format="1">
  <advance width="1010"/>
  <unicode hex="00A2"/>
  <outline>
    <component base="c" yScale="0.93" yOffset="75"/>
    <contour>
      <point x="551" y="-193" type="line"/>
      <point x="642" y="-193" type="line"/>
      <point x="642" y="1354" type="line"/>
      <point x="551" y="1354" type="line"/>
    </contour>
  </outline>
</glyph>
<glyph name="currency" format="1">
  <advance width="1133"/>
  <unicode hex="00A4"/>
  <outline>
    <contour>
      <point x="168" y="408" type="line"/>
      <point x="343" y="584" type="line"/>
      <point x="404" y="545"/>
      <point x="476" y="525"/>
      <point x="548" y="525" type="curve" smooth="yes"/>
      <point x="630" y="525"/>
      <point x="708" y="550"/>
      <point x="775" y="596" type="curve"/>
      <point x="963" y="408" type="line"/>
      <point x="1076" y="523" type="line"/>
      <point x="889" y="710" type="line"/>
      <point x="935" y="778"/>
      <point x="961" y="856"/>
      <point x="961" y="939" type="curve" smooth="yes"/>
      <point x="961" y="1011"/>
      <point x="941" y="1081"/>
      <point x="902" y="1142" type="curve"/>
      <point x="1076" y="1316" type="line"/>
      <point x="963" y="1430" type="line"/>
      <point x="790" y="1258" type="line"/>
      <point x="727" y="1299"/>
      <point x="653" y="1322"/>
      <point x="577" y="1322" type="curve" smooth="yes"/>
      <point x="494" y="1322"/>
      <point x="416" y="1296"/>
      <point x="348" y="1251" type="curve"/>
      <point x="168" y="1430" type="line"/>
      <point x="55" y="1316" type="line"/>
      <point x="234" y="1136" type="line"/>
      <point x="189" y="1069"/>
      <point x="164" y="991"/>
      <point x="164" y="909" type="curve" smooth="yes"/>
      <point x="164" y="833"/>
      <point x="186" y="760"/>
      <point x="227" y="697" type="curve"/>
      <point x="55" y="523" type="line"/>
    </contour>
    <contour>
      <point x="555" y="656" type="curve" smooth="yes"/>
      <point x="416" y="656"/>
      <point x="296" y="777"/>
      <point x="296" y="916" type="curve" smooth="yes"/>
      <point x="296" y="1063"/>
      <point x="425" y="1190"/>
      <point x="571" y="1190" type="curve" smooth="yes"/>
      <point x="709" y="1190"/>
      <point x="828" y="1070"/>
      <point x="828" y="932" type="curve" smooth="yes"/>
      <point x="828" y="788"/>
      <point x="699" y="656"/>
    </contour>
  </outline>
</glyph>
<glyph name="yen" format="1">
  <advance width="1129"/>
  <unicode hex="00A5"/>
  <outline>
    <contour>
      <point x="1134" y="1486" type="line"/>
      <point x="955" y="1486" type="line"/>
      <point x="558" y="738" type="line"/>
      <point x="162" y="1486" type="line"/>
      <point x="-13" y="1486" type="line"/>
      <point x="436" y="647" type="line"/>
      <point x="191" y="647" type="line"/>
      <point x="191" y="550" type="line"/>
      <point x="475" y="550" type="line"/>
      <point x="475" y="458" type="line"/>
      <point x="191" y="458" type="line"/>
      <point x="191" y="367" type="line"/>
      <point x="475" y="367" type="line"/>
      <point x="475" y="0" type="line"/>
      <point x="650" y="0" type="line"/>
      <point x="650" y="367" type="line"/>
      <point x="928" y="367" type="line"/>
      <point x="928" y="458" type="line"/>
      <point x="650" y="458" type="line"/>
      <point x="650" y="550" type="line"/>
      <point x="928" y="550" type="line"/>
      <point x="928" y="647" type="line"/>
      <point x="681" y="647" type="line"/>
    </contour>
  </outline>
</glyph>
<glyph name="brokenbar" format="1">
  <advance width="674"/>
  <unicode hex="00A6"/>
  <outline>
    <contour>
      <point x="243" y="-7" type="line"/>
      <point x="416" y="-7" type="line"/>
      <point x="416" y="641" type="line"/>
      <point x="243" y="641" type="line"/>
    </contour>
    <contour>
      <point x="243" y="838" type="line"/>
      <point x="416" y="838" type="line"/>
      <point x="416" y="1486" type="line"/>
      <point x="243" y="1486" type="line"/>
    </contour>
  </outline>
</glyph>
<glyph name="section" format="1">
  <advance width="1049"/>
  <unicode hex="00A7"/>
  <outline>
    <contour>
      <point x="498" y="-90" type="curve" smooth="yes"/>
      <point x="687" y="-90"/>
      <point x="888" y="-14"/>
      <point x="888" y="206" type="curve" smooth="yes"/>
      <point x="888" y="364"/>
      <point x="792" y="442"/>
      <point x="650" y="490" type="curve"/>
      <point x="767" y="498"/>
      <point x="886" y="572"/>
      <point x="886" y="701" type="curve" smooth="yes"/>
      <point x="886" y="892"/>
      <point x="748" y="964"/>
      <point x="590" y="1016" type="curve" smooth="yes"/>
      <point x="484" y="1050" type="line" smooth="yes"/>
      <point x="370" y="1089"/>
      <point x="292" y="1122"/>
      <point x="292" y="1199" type="curve" smooth="yes"/>
      <point x="292" y="1320"/>
      <point x="416" y="1340"/>
      <point x="510" y="1340" type="curve" smooth="yes"/>
      <point x="611" y="1340"/>
      <point x="708" y="1301"/>
      <point x="787" y="1240" type="curve"/>
      <point x="840" y="1366" type="line"/>
      <point x="770" y="1426"/>
      <point x="592" y="1475"/>
      <point x="501" y="1475" type="curve" smooth="yes"/>
      <point x="339" y="1475"/>
      <point x="148" y="1400"/>
      <point x="148" y="1208" type="curve" smooth="yes"/>
      <point x="148" y="1047"/>
      <point x="251" y="987"/>
      <point x="390" y="935" type="curve"/>
      <point x="274" y="922"/>
      <point x="148" y="859"/>
      <point x="148" y="724" type="curve" smooth="yes"/>
      <point x="148" y="526"/>
      <point x="289" y="467"/>
      <point x="438" y="422" type="curve" smooth="yes"/>
      <point x="510" y="400" type="line" smooth="yes"/>
      <point x="634" y="362"/>
      <point x="731" y="325"/>
      <point x="731" y="209" type="curve" smooth="yes"/>
      <point x="731" y="76"/>
      <point x="593" y="45"/>
      <point x="487" y="45" type="curve" smooth="yes"/>
      <point x="395" y="45"/>
      <point x="282" y="86"/>
      <point x="214" y="146" type="curve"/>
      <point x="157" y="18" type="line"/>
      <point x="231" y="-42"/>
      <point x="401" y="-90"/>
    </contour>
    <contour>
      <point x="512" y="563" type="curve" smooth="yes"/>
      <point x="414" y="563"/>
      <point x="290" y="585"/>
      <point x="290" y="708" type="curve" smooth="yes"/>
      <point x="290" y="835"/>
      <point x="412" y="853"/>
      <point x="512" y="853" type="curve" smooth="yes"/>
      <point x="614" y="853"/>
      <point x="738" y="838"/>
      <point x="738" y="706" type="curve" smooth="yes"/>
      <point x="738" y="586"/>
      <point x="607" y="563"/>
    </contour>
  </outline>
</glyph>
<glyph name="guillemotleft" format="1">
  <advance width="1218"/>
  <unicode hex="00AB"/>
  <outline>
    <contour>
      <point x="656" y="116" type="line"/>
      <point x="656" y="290" type="line"/>
      <point x="293" y="546" type="line"/>
      <point x="656" y="797" type="line"/>
      <point x="656" y="968" type="line"/>
      <point x="145" y="609" type="line"/>
      <point x="145" y="475" type="line"/>
    </contour>
    <contour>
      <point x="1111" y="116" type="line"/>
      <point x="1111" y="290" type="line"/>
      <point x="748" y="546" type="line"/>
      <point x="1111" y="797" type="line"/>
      <point x="1111" y="968" type="line"/>
      <point x="600" y="609" type="line"/>
      <point x="600" y="475" type="line"/>
    </contour>
  </outline>
</glyph>
<glyph name="logicalnot" format="1">
  <advance width="1471"/>
  <unicode hex="00AC"/>
  <outline>
    <contour>
      <point x="1083" y="448" type="line"/>
      <point x="1245" y="448" type="line"/>
      <point x="1245" y="1093" type="line"/>
      <point x="193" y="1093" type="line"/>
      <point x="193" y="954" type="line"/>
      <point x="1083" y="954" type="line"/>
    </contour>
  </outline>
</glyph>
<glyph name="uni00AD" format="1">
  <advance width="780"/>
  <unicode hex="00AD"/>
  <outline>
    <contour>
      <point x="169" y="477" type="line"/>
      <point x="603" y="477" type="line"/>
      <point x="603" y="597" type="line"/>
      <point x="169" y="597" type="line"/>
    </contour>
  </outline>
</glyph>
<glyph name="macron" format="1">
  <advance width="944"/>
  <unicode hex="00AF"/>
  <outline>
    <contour>
      <point x="473" y="1304" type="move" name="_mid"/>
    </contour>
    <contour>
      <point x="475" y="1098" type="move" name="_top"/>
    </contour>
    <contour>
      <point x="151" y="1249" type="line"/>
      <point x="787" y="1249" type="line"/>
      <point x="787" y="1357" type="line"/>
      <point x="151" y="1357" type="line"/>
    </contour>
  </outline>
</glyph>
<glyph name="uni00B2" format="1">
  <advance width="1001"/>
  <unicode hex="00B2"/>
  <outline>
    <contour>
      <point x="135" y="549" type="line"/>
      <point x="853" y="549" type="line"/>
      <point x="853" y="669" type="line"/>
      <point x="321" y="669" type="line"/>
      <point x="576" y="887" type="line" smooth="yes"/>
      <point x="721" y="1010"/>
      <point x="852" y="1148"/>
      <point x="852" y="1311" type="curve" smooth="yes"/>
      <point x="852" y="1537"/>
      <point x="677" y="1631"/>
      <point x="483" y="1631" type="curve" smooth="yes"/>
      <point x="372" y="1631"/>
      <point x="259" y="1600"/>
      <point x="170" y="1548" type="curve"/>
      <point x="218" y="1440" type="line"/>
      <point x="300" y="1479"/>
      <point x="399" y="1508"/>
      <point x="487" y="1508" type="curve" smooth="yes"/>
      <point x="608" y="1508"/>
      <point x="709" y="1456"/>
      <point x="709" y="1312" type="curve" smooth="yes"/>
      <point x="709" y="1164"/>
      <point x="592" y="1075"/>
      <point x="487" y="980" type="curve" smooth="yes"/>
      <point x="135" y="664" type="line"/>
    </contour>
  </outline>
</glyph>
<glyph name="uni00B3" format="1">
  <advance width="1109"/>
  <unicode hex="00B3"/>
  <outline>
    <contour>
      <point x="525" y="455" type="curve" smooth="yes"/>
      <point x="710" y="455"/>
      <point x="916" y="547"/>
      <point x="916" y="759" type="curve" smooth="yes"/>
      <point x="916" y="936"/>
      <point x="806" y="1041"/>
      <point x="641" y="1075" type="curve"/>
      <point x="784" y="1076"/>
      <point x="882" y="1206"/>
      <point x="882" y="1343" type="curve" smooth="yes"/>
      <point x="882" y="1555"/>
      <point x="691" y="1627"/>
      <point x="510" y="1627" type="curve" smooth="yes"/>
      <point x="414" y="1627"/>
      <point x="302" y="1599"/>
      <point x="215" y="1559" type="curve"/>
      <point x="257" y="1449" type="line"/>
      <point x="334" y="1488"/>
      <point x="419" y="1510"/>
      <point x="506" y="1510" type="curve" smooth="yes"/>
      <point x="635" y="1510"/>
      <point x="746" y="1474"/>
      <point x="746" y="1324" type="curve" smooth="yes"/>
      <point x="746" y="1174"/>
      <point x="611" y="1132"/>
      <point x="486" y="1132" type="curve"/>
      <point x="486" y="1014" type="line"/>
      <point x="632" y="998"/>
      <point x="768" y="941"/>
      <point x="768" y="775" type="curve" smooth="yes"/>
      <point x="767" y="626"/>
      <point x="665" y="569"/>
      <point x="528" y="569" type="curve" smooth="yes"/>
      <point x="432" y="569"/>
      <point x="317" y="599"/>
      <point x="233" y="644" type="curve"/>
      <point x="189" y="534" type="line"/>
      <point x="292" y="483"/>
      <point x="409" y="455"/>
    </contour>
  </outline>
</glyph>
<glyph name="acute" format="1">
  <advance width="742"/>
  <unicode hex="00B4"/>
  <outline>
    <contour>
      <point x="160" y="1098" type="move" name="_top"/>
    </contour>
    <contour>
      <point x="161" y="1290" type="line"/>
      <point x="633" y="1590" type="line"/>
      <point x="512" y="1716" type="line"/>
      <point x="124" y="1334" type="line"/>
    </contour>
  </outline>
</glyph>
<glyph name="paragraph" format="1">
  <advance width="1176"/>
  <unicode hex="00B6"/>
  <outline>
    <contour>
      <point x="531" y="-148" type="line"/>
      <point x="692" y="-148" type="line"/>
      <point x="692" y="1346" type="line"/>
      <point x="855" y="1346" type="line"/>
      <point x="855" y="-148" type="line"/>
      <point x="1016" y="-148" type="line"/>
      <point x="1016" y="1485" type="line"/>
      <point x="573" y="1485" type="line" smooth="yes"/>
      <point x="408" y="1485"/>
      <point x="127" y="1459"/>
      <point x="127" y="1178" type="curve" smooth="yes"/>
      <point x="127" y="917"/>
      <point x="368" y="854"/>
      <point x="531" y="854" type="curve"/>
    </contour>
  </outline>
</glyph>
<glyph name="guillemotright" format="1">
  <advance width="1218"/>
  <unicode hex="00BB"/>
  <outline>
    <contour>
      <point x="180" y="116" type="line"/>
      <point x="692" y="475" type="line"/>
      <point x="692" y="609" type="line"/>
      <point x="180" y="968" type="line"/>
      <point x="180" y="797" type="line"/>
      <point x="543" y="546" type="line"/>
      <point x="180" y="290" type="line"/>
    </contour>
    <contour>
      <point x="635" y="116" type="line"/>
      <point x="1147" y="475" type="line"/>
      <point x="1147" y="609" type="line"/>
      <point x="635" y="968" type="line"/>
      <point x="635" y="797" type="line"/>
      <point x="998" y="546" type="line"/>
      <point x="635" y="290" type="line"/>
    </contour>
  </outline>
</glyph>
<glyph name="onehalf" format="1">
  <advance width="1927"/>
  <unicode hex="00BD"/>
  <outline>
    <contour>
      <point x="1157" y="-1" type="line"/>
      <point x="1757" y="-1" type="line"/>
      <point x="1757" y="123" type="line"/>
      <point x="1346" y="123" type="line"/>
      <point x="1391" y="162"/>
      <point x="1461" y="213"/>
      <point x="1520" y="260" type="curve" smooth="yes"/>
      <point x="1646" y="362"/>
      <point x="1773" y="484"/>
      <point x="1773" y="629" type="curve" smooth="yes"/>
      <point x="1773" y="819"/>
      <point x="1625" y="892"/>
      <point x="1453" y="892" type="curve" smooth="yes"/>
      <point x="1357" y="892"/>
      <point x="1258" y="869"/>
      <point x="1172" y="832" type="curve"/>
      <point x="1173" y="698" type="line"/>
      <point x="1255" y="737"/>
      <point x="1355" y="768"/>
      <point x="1441" y="768" type="curve" smooth="yes"/>
      <point x="1538" y="768"/>
      <point x="1614" y="730"/>
      <point x="1614" y="626" type="curve" smooth="yes"/>
      <point x="1614" y="521"/>
      <point x="1550" y="455"/>
      <point x="1432" y="356" type="curve" smooth="yes"/>
      <point x="1363" y="299"/>
      <point x="1262" y="219"/>
      <point x="1157" y="125" type="curve"/>
    </contour>
    <contour>
      <point x="340" y="619" type="line"/>
      <point x="488" y="619" type="line"/>
      <point x="488" y="1498" type="line"/>
      <point x="368" y="1522" type="line"/>
      <point x="148" y="1433" type="line"/>
      <point x="180" y="1346" type="line"/>
      <point x="340" y="1414" type="line"/>
    </contour>
    <contour>
      <point x="457" y="-30" type="line"/>
      <point x="1434" y="1517" type="line"/>
      <point x="1329" y="1576" type="line"/>
      <point x="354" y="29" type="line"/>
    </contour>
  </outline>
</glyph>
<glyph name="Thorn" format="1">
  <advance width="1347"/>
  <unicode hex="00DE"/>
  <outline>
    <contour>
      <point x="177" y="0" type="line"/>
      <point x="355" y="0" type="line"/>
      <point x="355" y="352" type="line"/>
      <point x="413" y="352" type="line" smooth="yes"/>
      <point x="747" y="351"/>
      <point x="1207" y="349"/>
      <point x="1207" y="791" type="curve" smooth="yes"/>
      <point x="1207" y="1192"/>
      <point x="883" y="1232"/>
      <point x="555" y="1232" type="curve" smooth="yes"/>
      <point x="355" y="1232" type="line"/>
      <point x="355" y="1485" type="line"/>
      <point x="177" y="1485" type="line"/>
    </contour>
    <contour>
      <point x="355" y="487" type="line"/>
      <point x="355" y="1100" type="line"/>
      <point x="565" y="1100" type="line" smooth="yes"/>
      <point x="844" y="1100"/>
      <point x="1039" y="1086"/>
      <point x="1039" y="770" type="curve" smooth="yes"/>
      <point x="1039" y="494"/>
      <point x="735" y="487"/>
      <point x="525" y="487" type="curve" smooth="yes"/>
    </contour>
  </outline>
</glyph>
<glyph name="eth" format="1">
  <advance width="1176"/>
  <unicode hex="00F0"/>
  <outline>
    <contour>
      <point x="556" y="-19" type="curve" smooth="yes"/>
      <point x="952" y="-19"/>
      <point x="1055" y="302"/>
      <point x="1055" y="647" type="curve" smooth="yes"/>
      <point x="1055" y="915"/>
      <point x="979" y="1127"/>
      <point x="823" y="1340" type="curve"/>
      <point x="1069" y="1413" type="line"/>
      <point x="1029" y="1496" type="line"/>
      <point x="760" y="1417" type="line"/>
      <point x="672" y="1504"/>
      <point x="589" y="1578"/>
      <point x="482" y="1638" type="curve"/>
      <point x="404" y="1543" type="line"/>
      <point x="481" y="1495"/>
      <point x="551" y="1437"/>
      <point x="614" y="1373" type="curve"/>
      <point x="422" y="1317" type="line"/>
      <point x="462" y="1233" type="line"/>
      <point x="682" y="1298" type="line"/>
      <point x="766" y="1201"/>
      <point x="840" y="1086"/>
      <point x="879" y="963" type="curve"/>
      <point x="803" y="1060"/>
      <point x="657" y="1119"/>
      <point x="536" y="1119" type="curve" smooth="yes"/>
      <point x="225" y="1119"/>
      <point x="101" y="821"/>
      <point x="101" y="549" type="curve" smooth="yes"/>
      <point x="101" y="257"/>
      <point x="229" y="-19"/>
    </contour>
    <contour>
      <point x="552" y="113" type="curve" smooth="yes"/>
      <point x="312" y="113"/>
      <point x="268" y="356"/>
      <point x="268" y="552" type="curve" smooth="yes"/>
      <point x="268" y="777"/>
      <point x="317" y="987"/>
      <point x="575" y="987" type="curve" smooth="yes"/>
      <point x="782" y="987"/>
      <point x="885" y="820"/>
      <point x="885" y="625" type="curve" smooth="yes"/>
      <point x="885" y="382"/>
      <point x="845" y="113"/>
    </contour>
  </outline>
</glyph>
<glyph name="divide" format="1">
  <advance width="938"/>
  <unicode hex="00F7"/>
  <outline>
    <contour>
      <point x="462" y="226" type="curve" smooth="yes"/>
      <point x="521" y="226"/>
      <point x="562" y="275"/>
      <point x="562" y="332" type="curve" smooth="yes"/>
      <point x="562" y="389"/>
      <point x="521" y="438"/>
      <point x="462" y="438" type="curve" smooth="yes"/>
      <point x="404" y="438"/>
      <point x="358" y="389"/>
      <point x="358" y="332" type="curve" smooth="yes"/>
      <point x="358" y="274"/>
      <point x="403" y="226"/>
    </contour>
    <contour>
      <point x="93" y="573" type="line"/>
      <point x="839" y="573" type="line"/>
      <point x="839" y="694" type="line"/>
      <point x="93" y="694" type="line"/>
    </contour>
    <contour>
      <point x="464" y="828" type="curve" smooth="yes"/>
      <point x="524" y="828"/>
      <point x="564" y="877"/>
      <point x="564" y="934" type="curve" smooth="yes"/>
      <point x="564" y="991"/>
      <point x="524" y="1041"/>
      <point x="464" y="1041" type="curve" smooth="yes"/>
      <point x="406" y="1041"/>
      <point x="360" y="991"/>
      <point x="360" y="934" type="curve" smooth="yes"/>
      <point x="360" y="876"/>
      <point x="405" y="828"/>
    </contour>
  </outline>
</glyph>
<glyph name="oslash" format="1">
  <advance width="1199"/>
  <unicode hex="00F8"/>
  <outline>
    <contour>
      <point x="395" y="-186" type="line"/>
      <point x="457" y="-2" type="line"/>
      <point x="503" y="-14"/>
      <point x="551" y="-19"/>
      <point x="598" y="-19" type="curve" smooth="yes"/>
      <point x="937" y="-19"/>
      <point x="1097" y="233"/>
      <point x="1097" y="547" type="curve" smooth="yes"/>
      <point x="1097" y="759"/>
      <point x="1022" y="970"/>
      <point x="822" y="1072" type="curve"/>
      <point x="885" y="1255" type="line"/>
      <point x="810" y="1283" type="line"/>
      <point x="747" y="1100" type="line"/>
      <point x="699" y="1113"/>
      <point x="648" y="1119"/>
      <point x="598" y="1119" type="curve" smooth="yes"/>
      <point x="260" y="1119"/>
      <point x="101" y="858"/>
      <point x="101" y="547" type="curve" smooth="yes"/>
      <point x="101" y="336"/>
      <point x="172" y="124"/>
      <point x="376" y="26" type="curve"/>
      <point x="312" y="-159" type="line"/>
    </contour>
    <contour>
      <point x="421" y="157" type="line"/>
      <point x="296" y="242"/>
      <point x="269" y="407"/>
      <point x="269" y="547" type="curve" smooth="yes"/>
      <point x="269" y="762"/>
      <point x="341" y="990"/>
      <point x="598" y="990" type="curve" smooth="yes"/>
      <point x="634" y="990"/>
      <point x="669" y="986"/>
      <point x="703" y="975" type="curve"/>
    </contour>
    <contour>
      <point x="598" y="108" type="curve" smooth="yes"/>
      <point x="565" y="108"/>
      <point x="531" y="111"/>
      <point x="498" y="120" type="curve"/>
      <point x="777" y="939" type="line"/>
      <point x="900" y="853"/>
      <point x="928" y="685"/>
      <point x="928" y="547" type="curve" smooth="yes"/>
      <point x="928" y="331"/>
      <point x="856" y="108"/>
    </contour>
  </outline>
</glyph>
<glyph name="thorn" format="1">
  <advance width="1205"/>
  <unicode hex="00FE"/>
  <outline>
    <contour>
      <point x="137" y="-460" type="line"/>
      <point x="309" y="-439" type="line"/>
      <point x="309" y="112" type="line"/>
      <point x="389" y="10"/>
      <point x="523" y="-19"/>
      <point x="647" y="-19" type="curve" smooth="yes"/>
      <point x="965" y="-19"/>
      <point x="1089" y="274"/>
      <point x="1089" y="549" type="curve" smooth="yes"/>
      <point x="1089" y="828"/>
      <point x="968" y="1119"/>
      <point x="647" y="1119" type="curve" smooth="yes"/>
      <point x="514" y="1119"/>
      <point x="388" y="1047"/>
      <point x="307" y="944" type="curve"/>
      <point x="307" y="1473" type="line"/>
      <point x="137" y="1473" type="line"/>
    </contour>
    <contour>
      <point x="653" y="114" type="curve" smooth="yes"/>
      <point x="540" y="114"/>
      <point x="401" y="153"/>
      <point x="315" y="229" type="curve"/>
      <point x="330" y="838" type="line"/>
      <point x="411" y="921"/>
      <point x="530" y="987"/>
      <point x="647" y="987" type="curve" smooth="yes"/>
      <point x="890" y="987"/>
      <point x="920" y="692"/>
      <point x="920" y="511" type="curve" smooth="yes"/>
      <point x="920" y="343"/>
      <point x="861" y="114"/>
    </contour>
  </outline>
</glyph>
<glyph name="dotlessi" format="1">
  <advance width="605"/>
  <unicode hex="0131"/>
  <outline>
    <contour>
      <point x="312" y="1098" type="move" name="top"/>
    </contour>
    <contour>
      <point x="215" y="0" type="line"/>
      <point x="383" y="0" type="line"/>
      <point x="383" y="1099" type="line"/>
      <point x="215" y="1099" type="line"/>
    </contour>
  </outline>
</glyph>
<glyph name="Eng" format="1">
  <advance width="1539"/>
  <unicode hex="014A"/>
  <outline>
    <contour>
      <point x="1358" y="1485" type="line"/>
      <point x="1199" y="1485" type="line"/>
      <point x="1199" y="341" type="line"/>
      <point x="423" y="1485" type="line"/>
      <point x="181" y="1485" type="line"/>
      <point x="181" y="0" type="line"/>
      <point x="340" y="0" type="line"/>
      <point x="340" y="1324" type="line"/>
      <point x="1200" y="63" type="line" smooth="yes"/>
      <point x="1200" y="-185"/>
      <point x="1182" y="-276"/>
      <point x="862" y="-308" type="curve"/>
      <point x="908" y="-436" type="line"/>
      <point x="1217" y="-413"/>
      <point x="1348" y="-296"/>
      <point x="1358" y="-6" type="curve" smooth="yes"/>
    </contour>
  </outline>
</glyph>
<glyph name="OE" format="1">
  <advance width="2065"/>
  <unicode hex="0152"/>
  <outline>
    <contour>
      <point x="739" y="-38" type="curve" smooth="yes"/>
      <point x="945" y="-38"/>
      <point x="1082" y="33"/>
      <point x="1169" y="149" type="curve"/>
      <point x="1169" y="0" type="line"/>
      <point x="2091" y="0" type="line"/>
      <point x="2091" y="133" type="line"/>
      <point x="1348" y="133" type="line"/>
      <point x="1348" y="730" type="line"/>
      <point x="1986" y="730" type="line"/>
      <point x="1986" y="838" type="line"/>
      <point x="1348" y="838" type="line"/>
      <point x="1348" y="1354" type="line"/>
      <point x="2079" y="1354" type="line"/>
      <point x="2079" y="1486" type="line"/>
      <point x="1169" y="1486" type="line"/>
      <point x="1169" y="1327" type="line"/>
      <point x="1080" y="1444"/>
      <point x="939" y="1514"/>
      <point x="726" y="1514" type="curve" smooth="yes"/>
      <point x="270" y="1514"/>
      <point x="125" y="1141"/>
      <point x="125" y="738" type="curve" smooth="yes"/>
      <point x="125" y="318"/>
      <point x="271" y="-38"/>
    </contour>
    <contour>
      <point x="748" y="102" type="curve" smooth="yes"/>
      <point x="377" y="102"/>
      <point x="309" y="432"/>
      <point x="309" y="738" type="curve" smooth="yes"/>
      <point x="309" y="1037"/>
      <point x="370" y="1374"/>
      <point x="740" y="1374" type="curve" smooth="yes"/>
      <point x="1108" y="1374"/>
      <point x="1169" y="1040"/>
      <point x="1169" y="738" type="curve" smooth="yes"/>
      <point x="1169" y="449"/>
      <point x="1108" y="102"/>
    </contour>
  </outline>
</glyph>
<glyph name="oe" format="1">
  <advance width="1833"/>
  <unicode hex="0153"/>
  <outline>
    <contour>
      <point x="572" y="-19" type="curve" smooth="yes"/>
      <point x="768" y="-19"/>
      <point x="904" y="67"/>
      <point x="983" y="200" type="curve"/>
      <point x="1061" y="67"/>
      <point x="1197" y="-19"/>
      <point x="1394" y="-19" type="curve" smooth="yes"/>
      <point x="1509" y="-19"/>
      <point x="1659" y="28"/>
      <point x="1752" y="94" type="curve"/>
      <point x="1695" y="227" type="line"/>
      <point x="1615" y="153"/>
      <point x="1512" y="108"/>
      <point x="1405" y="108" type="curve" smooth="yes"/>
      <point x="1153" y="108"/>
      <point x="1075" y="305"/>
      <point x="1073" y="530" type="curve"/>
      <point x="1792" y="530" type="line"/>
      <point x="1798" y="564"/>
      <point x="1802" y="599"/>
      <point x="1802" y="636" type="curve" smooth="yes"/>
      <point x="1802" y="899"/>
      <point x="1674" y="1119"/>
      <point x="1386" y="1119" type="curve" smooth="yes"/>
      <point x="1195" y="1119"/>
      <point x="1063" y="1028"/>
      <point x="986" y="891" type="curve"/>
      <point x="907" y="1029"/>
      <point x="770" y="1119"/>
      <point x="572" y="1119" type="curve" smooth="yes"/>
      <point x="235" y="1119"/>
      <point x="74" y="858"/>
      <point x="74" y="547" type="curve" smooth="yes"/>
      <point x="74" y="235"/>
      <point x="235" y="-19"/>
    </contour>
    <contour>
      <point x="572" y="108" type="curve" smooth="yes"/>
      <point x="317" y="108"/>
      <point x="242" y="330"/>
      <point x="242" y="547" type="curve" smooth="yes"/>
      <point x="242" y="763"/>
      <point x="315" y="990"/>
      <point x="572" y="990" type="curve" smooth="yes"/>
      <point x="829" y="990"/>
      <point x="901" y="763"/>
      <point x="901" y="547" type="curve" smooth="yes"/>
      <point x="901" y="329"/>
      <point x="829" y="108"/>
    </contour>
    <contour>
      <point x="1077" y="641" type="line"/>
      <point x="1093" y="830"/>
      <point x="1170" y="995"/>
      <point x="1386" y="995" type="curve" smooth="yes"/>
      <point x="1581" y="995"/>
      <point x="1647" y="845"/>
      <point x="1647" y="641" type="curve"/>
    </contour>
  </outline>
</glyph>
<glyph name="florin" format="1">
  <advance width="1054"/>
  <unicode hex="0192"/>
  <outline>
    <contour>
      <point x="304" y="0" type="line"/>
      <point x="474" y="0" type="line"/>
      <point x="597" y="967" type="line"/>
      <point x="924" y="967" type="line"/>
      <point x="933" y="1064" type="line"/>
      <point x="607" y="1064" type="line"/>
      <point x="639" y="1295"/>
      <point x="685" y="1387"/>
      <point x="809" y="1387" type="curve" smooth="yes"/>
      <point x="851" y="1387"/>
      <point x="903" y="1377"/>
      <point x="968" y="1355" type="curve"/>
      <point x="1010" y="1474" type="line"/>
      <point x="923" y="1507"/>
      <point x="842" y="1527"/>
      <point x="772" y="1527" type="curve" smooth="yes"/>
      <point x="593" y="1527"/>
      <point x="472" y="1404"/>
      <point x="432" y="1064" type="curve"/>
      <point x="250" y="1064" type="line"/>
      <point x="240" y="967" type="line"/>
      <point x="422" y="967" type="line"/>
    </contour>
  </outline>
</glyph>
<glyph name="uni0237" format="1">
  <advance width="854"/>
  <unicode hex="0237"/>
  <outline>
    <contour>
      <point x="543" y="1098" type="move" name="top"/>
    </contour>
    <contour>
      <point x="319" y="-352" type="line"/>
      <point x="542" y="-297"/>
      <point x="627" y="-64"/>
      <point x="627" y="144" type="curve" smooth="yes"/>
      <point x="627" y="1099" type="line"/>
      <point x="451" y="1099" type="line"/>
      <point x="451" y="164" type="line" smooth="yes"/>
      <point x="451" y="-15"/>
      <point x="439" y="-140"/>
      <point x="275" y="-245" type="curve"/>
    </contour>
  </outline>
</glyph>
<glyph name="caron" format="1">
  <advance width="870"/>
  <unicode hex="02C7"/>
  <outline>
    <contour>
      <point x="427" y="1098" type="move" name="_top"/>
    </contour>
    <contour>
      <point x="361" y="1279" type="line"/>
      <point x="486" y="1279" type="line"/>
      <point x="741" y="1690" type="line"/>
      <point x="595" y="1690" type="line"/>
      <point x="424" y="1413" type="line"/>
      <point x="252" y="1690" type="line"/>
      <point x="106" y="1690" type="line"/>
    </contour>
  </outline>
</glyph>
<glyph name="uni02C9" format="1">
  <advance width="636"/>
  <unicode hex="02C9"/>
  <outline>
    <contour>
      <point x="322" y="1304" type="move" name="_mid"/>
    </contour>
    <contour>
      <point x="324" y="1098" type="move" name="_top"/>
    </contour>
    <contour>
      <point x="0" y="1249" type="line"/>
      <point x="636" y="1249" type="line"/>
      <point x="636" y="1357" type="line"/>
      <point x="0" y="1357" type="line"/>
    </contour>
  </outline>
</glyph>
<glyph name="dotaccent" format="1">
  <advance width="610"/>
  <unicode hex="02D9"/>
  <outline>
    <contour>
      <point x="309" y="1098" type="move" name="_top"/>
    </contour>
    <contour>
      <point x="303" y="1268" type="curve" smooth="yes"/>
      <point x="364" y="1268"/>
      <point x="402" y="1308"/>
      <point x="402" y="1374" type="curve" smooth="yes"/>
      <point x="402" y="1440"/>
      <point x="364" y="1480"/>
      <point x="303" y="1480" type="curve" smooth="yes"/>
      <point x="239" y="1480"/>
      <point x="199" y="1440"/>
      <point x="199" y="1374" type="curve" smooth="yes"/>
      <point x="199" y="1308"/>
      <point x="239" y="1268"/>
    </contour>
  </outline>
</glyph>
<glyph name="ring" format="1">
  <advance width="783"/>
  <unicode hex="02DA"/>
  <outline>
    <contour>
      <point x="390" y="1568" type="move" name="top"/>
    </contour>
    <contour>
      <point x="420" y="1098" type="move" name="_top"/>
    </contour>
    <contour>
      <point x="420" y="1309" type="curve" smooth="yes"/>
      <point x="336" y="1309"/>
      <point x="284" y="1363"/>
      <point x="284" y="1449" type="curve" smooth="yes"/>
      <point x="284" y="1535"/>
      <point x="336" y="1588"/>
      <point x="420" y="1588" type="curve" smooth="yes"/>
      <point x="501" y="1588"/>
      <point x="552" y="1535"/>
      <point x="552" y="1449" type="curve" smooth="yes"/>
      <point x="552" y="1363"/>
      <point x="501" y="1309"/>
    </contour>
    <contour>
      <point x="420" y="1226" type="curve" smooth="yes"/>
      <point x="556" y="1226"/>
      <point x="641" y="1312"/>
      <point x="641" y="1449" type="curve" smooth="yes"/>
      <point x="641" y="1585"/>
      <point x="556" y="1671"/>
      <point x="420" y="1671" type="curve" smooth="yes"/>
      <point x="282" y="1671"/>
      <point x="195" y="1585"/>
      <point x="195" y="1449" type="curve" smooth="yes"/>
      <point x="195" y="1312"/>
      <point x="282" y="1226"/>
    </contour>
  </outline>
</glyph>
<glyph name="ogonek" format="1">
  <advance width="808"/>
  <unicode hex="02DB"/>
  <outline>
    <contour>
      <point x="493" y="-493" type="curve" smooth="yes"/>
      <point x="513" y="-493"/>
      <point x="547" y="-491"/>
      <point x="571" y="-486" type="curve"/>
      <point x="571" y="-371" type="line"/>
      <point x="549" y="-375"/>
      <point x="528" y="-377"/>
      <point x="509" y="-377" type="curve" smooth="yes"/>
      <point x="415" y="-377"/>
      <point x="366" y="-327"/>
      <point x="366" y="-254" type="curve" smooth="yes"/>
      <point x="366" y="-195"/>
      <point x="401" y="-97"/>
      <point x="528" y="0" type="curve"/>
      <point x="416" y="0" type="line"/>
      <point x="303" y="-79"/>
      <point x="245" y="-190"/>
      <point x="245" y="-286" type="curve" smooth="yes"/>
      <point x="245" y="-401"/>
      <point x="328" y="-493"/>
    </contour>
  </outline>
</glyph>
<glyph name="uni0326" format="1">
  <advance width="665"/>
  <unicode hex="0326"/>
  <outline>
    <contour>
      <point x="389" y="0" type="move" name="_bot"/>
    </contour>
    <contour>
      <point x="289" y="-573" type="line"/>
      <point x="424" y="-534"/>
      <point x="482" y="-440"/>
      <point x="482" y="-296" type="curve" smooth="yes"/>
      <point x="482" y="-108" type="line"/>
      <point x="289" y="-108" type="line"/>
      <point x="289" y="-337" type="line"/>
      <point x="382" y="-337" type="line"/>
      <point x="383" y="-426"/>
      <point x="335" y="-487"/>
      <point x="255" y="-514" type="curve"/>
    </contour>
  </outline>
</glyph>
<glyph name="uni03BC" format="1">
  <advance width="1223"/>
  <unicode hex="03BC"/>
  <outline>
    <contour>
      <point x="316" y="-276" type="line"/>
      <point x="316" y="104" type="line"/>
      <point x="372" y="32"/>
      <point x="446" y="-20"/>
      <point x="543" y="-20" type="curve" smooth="yes"/>
      <point x="693" y="-20"/>
      <point x="820" y="48"/>
      <point x="918" y="158" type="curve"/>
      <point x="941" y="0" type="line"/>
      <point x="1075" y="0" type="line"/>
      <point x="1075" y="1096" type="line"/>
      <point x="885" y="1096" type="line"/>
      <point x="885" y="255" type="line"/>
      <point x="813" y="167"/>
      <point x="666" y="113"/>
      <point x="555" y="113" type="curve" smooth="yes"/>
      <point x="370" y="113"/>
      <point x="316" y="249"/>
      <point x="316" y="412" type="curve" smooth="yes"/>
      <point x="316" y="1096" type="line"/>
      <point x="155" y="1096" type="line"/>
      <point x="155" y="-277" type="line"/>
    </contour>
  </outline>
</glyph>
<glyph name="endash" format="1">
  <advance width="789"/>
  <unicode hex="2013"/>
  <outline>
    <contour>
      <point x="173" y="522" type="line"/>
      <point x="610" y="522" type="line"/>
      <point x="610" y="654" type="line"/>
      <point x="173" y="654" type="line"/>
    </contour>
  </outline>
</glyph>
<glyph name="quotedblleft" format="1">
  <advance width="915"/>
  <unicode hex="201C"/>
  <outline>
    <contour>
      <point x="151" y="1005" type="line"/>
      <point x="409" y="1005" type="line"/>
      <point x="409" y="1276" type="line"/>
      <point x="289" y="1276" type="line"/>
      <point x="288" y="1368"/>
      <point x="328" y="1401"/>
      <point x="409" y="1428" type="curve"/>
      <point x="362" y="1514" type="line"/>
      <point x="226" y="1475"/>
      <point x="151" y="1379"/>
      <point x="151" y="1236" type="curve" smooth="yes"/>
    </contour>
    <contour>
      <point x="494" y="1005" type="line"/>
      <point x="752" y="1005" type="line"/>
      <point x="752" y="1276" type="line"/>
      <point x="631" y="1276" type="line"/>
      <point x="630" y="1368"/>
      <point x="671" y="1401"/>
      <point x="752" y="1428" type="curve"/>
      <point x="705" y="1514" type="line"/>
      <point x="569" y="1475"/>
      <point x="494" y="1379"/>
      <point x="494" y="1236" type="curve" smooth="yes"/>
    </contour>
  </outline>
</glyph>
<glyph name="quotedblbase" format="1">
  <advance width="916"/>
  <unicode hex="201E"/>
  <outline>
    <contour>
      <point x="197" y="-254" type="line"/>
      <point x="334" y="-215"/>
      <point x="409" y="-119"/>
      <point x="409" y="24" type="curve" smooth="yes"/>
      <point x="409" y="256" type="line"/>
      <point x="151" y="256" type="line"/>
      <point x="151" y="-16" type="line"/>
      <point x="272" y="-16" type="line"/>
      <point x="273" y="-107"/>
      <point x="231" y="-141"/>
      <point x="151" y="-168" type="curve"/>
    </contour>
    <contour>
      <point x="540" y="-254" type="line"/>
      <point x="676" y="-215"/>
      <point x="752" y="-119"/>
      <point x="752" y="24" type="curve" smooth="yes"/>
      <point x="752" y="256" type="line"/>
      <point x="494" y="256" type="line"/>
      <point x="494" y="-16" type="line"/>
      <point x="615" y="-16" type="line"/>
      <point x="616" y="-107"/>
      <point x="574" y="-141"/>
      <point x="494" y="-168" type="curve"/>
    </contour>
  </outline>
</glyph>
<glyph name="guilsinglleft" format="1">
  <advance width="869"/>
  <unicode hex="2039"/>
  <outline>
    <contour>
      <point x="739" y="116" type="line"/>
      <point x="739" y="290" type="line"/>
      <point x="321" y="546" type="line"/>
      <point x="739" y="797" type="line"/>
      <point x="739" y="968" type="line"/>
      <point x="172" y="609" type="line"/>
      <point x="172" y="475" type="line"/>
    </contour>
  </outline>
</glyph>
<glyph name="uni203E" format="1">
  <advance width="944"/>
  <unicode hex="203E"/>
  <outline>
    <contour>
      <point x="149" y="115" type="line"/>
      <point x="791" y="115" type="line"/>
      <point x="791" y="225" type="line"/>
      <point x="149" y="225" type="line"/>
    </contour>
  </outline>
</glyph>
<glyph name="fraction" format="1">
  <advance width="859"/>
  <unicode hex="2044"/>
  <outline>
    <contour>
      <point x="111" y="-17" type="line"/>
      <point x="859" y="1502" type="line"/>
      <point x="745" y="1502" type="line"/>
      <point x="0" y="-17" type="line"/>
    </contour>
  </outline>
</glyph>
<glyph name="Euro" format="1">
  <advance width="1303"/>
  <unicode hex="20AC"/>
  <outline>
    <component base="C"/>
    <contour>
      <point x="-34" y="554" type="line"/>
      <point x="804" y="554" type="line"/>
      <point x="804" y="661" type="line"/>
      <point x="272" y="661" type="line"/>
      <point x="272" y="875" type="line"/>
      <point x="804" y="875" type="line"/>
      <point x="804" y="982" type="line"/>
      <point x="-34" y="982" type="line"/>
      <point x="-34" y="875" type="line"/>
      <point x="200" y="875" type="line"/>
      <point x="200" y="661" type="line"/>
      <point x="-34" y="661" type="line"/>
    </contour>
  </outline>
</glyph>
<glyph name="afii61289" format="1">
  <advance width="823"/>
  <unicode hex="2113"/>
  <outline>
    <contour>
      <point x="563" y="-17" type="curve" smooth="yes"/>
      <point x="628" y="-17"/>
      <point x="701" y="-4"/>
      <point x="769" y="20" type="curve"/>
      <point x="744" y="129" type="line"/>
      <point x="685" y="109"/>
      <point x="627" y="97"/>
      <point x="573" y="97" type="curve" smooth="yes"/>
      <point x="481" y="97"/>
      <point x="416" y="132"/>
      <point x="416" y="230" type="curve" smooth="yes"/>
      <point x="416" y="971" type="line"/>
      <point x="582" y="1129" type="line" smooth="yes"/>
      <point x="652" y="1194"/>
      <point x="691" y="1242"/>
      <point x="691" y="1310" type="curve" smooth="yes"/>
      <point x="691" y="1420"/>
      <point x="596" y="1490"/>
      <point x="491" y="1490" type="curve" smooth="yes"/>
      <point x="395" y="1490"/>
      <point x="277" y="1430"/>
      <point x="277" y="1259" type="curve" smooth="yes"/>
      <point x="276" y="1000" type="line"/>
      <point x="52" y="784" type="line"/>
      <point x="52" y="631" type="line"/>
      <point x="275" y="847" type="line"/>
      <point x="275" y="229" type="line" smooth="yes"/>
      <point x="275" y="56"/>
      <point x="405" y="-17"/>
    </contour>
    <contour>
      <point x="416" y="1124" type="line"/>
      <point x="416" y="1262" type="line" smooth="yes"/>
      <point x="416" y="1335"/>
      <point x="453" y="1365"/>
      <point x="490" y="1365" type="curve" smooth="yes"/>
      <point x="523" y="1365"/>
      <point x="554" y="1341"/>
      <point x="554" y="1299" type="curve" smooth="yes"/>
      <point x="554" y="1269"/>
      <point x="534" y="1239"/>
      <point x="500" y="1206" type="curve" smooth="yes"/>
    </contour>
  </outline>
</glyph>
<glyph name="trademark" format="1">
  <advance width="1440"/>
  <unicode hex="2122"/>
  <outline>
    <contour>
      <point x="636" y="748" type="line"/>
      <point x="755" y="748" type="line"/>
      <point x="755" y="1367" type="line"/>
      <point x="940" y="750" type="line"/>
      <point x="1103" y="750" type="line"/>
      <point x="1289" y="1367" type="line"/>
      <point x="1289" y="748" type="line"/>
      <point x="1407" y="748" type="line"/>
      <point x="1407" y="1485" type="line"/>
      <point x="1196" y="1485" type="line"/>
      <point x="1022" y="873" type="line"/>
      <point x="847" y="1485" type="line"/>
      <point x="636" y="1485" type="line"/>
    </contour>
    <contour>
      <point x="212" y="748" type="line"/>
      <point x="337" y="748" type="line"/>
      <point x="337" y="1390" type="line"/>
      <point x="533" y="1390" type="line"/>
      <point x="533" y="1485" type="line"/>
      <point x="20" y="1485" type="line"/>
      <point x="20" y="1390" type="line"/>
      <point x="212" y="1390" type="line"/>
    </contour>
  </outline>
</glyph>
<glyph name="emptyset" format="1">
  <advance width="1650"/>
  <unicode hex="2205"/>
  <outline>
    <contour>
      <point x="352" y="-89" type="line"/>
      <point x="508" y="85" type="line"/>
      <point x="600" y="21"/>
      <point x="713" y="-17"/>
      <point x="834" y="-17" type="curve" smooth="yes"/>
      <point x="1151" y="-17"/>
      <point x="1407" y="239"/>
      <point x="1407" y="556" type="curve" smooth="yes"/>
      <point x="1407" y="701"/>
      <point x="1354" y="831"/>
      <point x="1266" y="932" type="curve"/>
      <point x="1418" y="1102" type="line"/>
      <point x="1331" y="1178" type="line"/>
      <point x="1183" y="1011" type="line"/>
      <point x="1086" y="1086"/>
      <point x="965" y="1130"/>
      <point x="834" y="1130" type="curve" smooth="yes"/>
      <point x="517" y="1130"/>
      <point x="260" y="873"/>
      <point x="260" y="556" type="curve" smooth="yes"/>
      <point x="260" y="403"/>
      <point x="320" y="263"/>
      <point x="419" y="160" type="curve"/>
      <point x="264" y="-13" type="line"/>
    </contour>
    <contour>
      <point x="516" y="269" type="line"/>
      <point x="450" y="346"/>
      <point x="412" y="447"/>
      <point x="412" y="556" type="curve" smooth="yes"/>
      <point x="412" y="789"/>
      <point x="584" y="987"/>
      <point x="834" y="987" type="curve" smooth="yes"/>
      <point x="932" y="987"/>
      <point x="1018" y="957"/>
      <point x="1087" y="906" type="curve"/>
    </contour>
    <contour>
      <point x="834" y="126" type="curve" smooth="yes"/>
      <point x="747" y="126"/>
      <point x="668" y="151"/>
      <point x="603" y="193" type="curve"/>
      <point x="1168" y="823" type="line"/>
      <point x="1223" y="750"/>
      <point x="1256" y="656"/>
      <point x="1256" y="556" type="curve" smooth="yes"/>
      <point x="1256" y="323"/>
      <point x="1084" y="126"/>
    </contour>
  </outline>
</glyph>
<glyph name="Delta" format="1">
  <advance width="1329"/>
  <unicode hex="2206"/>
  <outline>
    <contour>
      <point x="35" y="0" type="line"/>
      <point x="1285" y="0" type="line"/>
      <point x="779" y="1486" type="line"/>
      <point x="531" y="1486" type="line"/>
    </contour>
    <contour>
      <point x="275" y="152" type="line"/>
      <point x="660" y="1376" type="line"/>
      <point x="1040" y="152" type="line"/>
    </contour>
  </outline>
</glyph>
<glyph name="minus" format="1">
  <advance width="937"/>
  <unicode hex="2212"/>
  <outline>
    <contour>
      <point x="147" y="479" type="line"/>
      <point x="784" y="479" type="line"/>
      <point x="784" y="601" type="line"/>
      <point x="147" y="601" type="line"/>
    </contour>
  </outline>
</glyph>
<glyph name="integral" format="1">
  <advance width="1228"/>
  <unicode hex="222B"/>
  <outline>
    <contour>
      <point x="337" y="-303" type="curve" smooth="yes"/>
      <point x="516" y="-303"/>
      <point x="606" y="-146"/>
      <point x="647" y="196" type="curve" smooth="yes"/>
      <point x="750" y="1073" type="line" smooth="yes"/>
      <point x="780" y="1295"/>
      <point x="826" y="1387"/>
      <point x="950" y="1387" type="curve" smooth="yes"/>
      <point x="992" y="1387"/>
      <point x="1044" y="1377"/>
      <point x="1109" y="1355" type="curve"/>
      <point x="1152" y="1474" type="line"/>
      <point x="1065" y="1507"/>
      <point x="983" y="1527"/>
      <point x="913" y="1527" type="curve" smooth="yes"/>
      <point x="734" y="1527"/>
      <point x="614" y="1404"/>
      <point x="575" y="1074" type="curve" smooth="yes"/>
      <point x="477" y="217" type="line"/>
      <point x="444" y="-61"/>
      <point x="407" y="-168"/>
      <point x="301" y="-168" type="curve" smooth="yes"/>
      <point x="260" y="-168"/>
      <point x="208" y="-152"/>
      <point x="142" y="-124" type="curve"/>
      <point x="100" y="-239" type="line"/>
      <point x="193" y="-281"/>
      <point x="270" y="-303"/>
    </contour>
  </outline>
</glyph>
<glyph name="greaterequal" format="1">
  <advance width="1364"/>
  <unicode hex="2265"/>
  <outline>
    <contour>
      <point x="274" y="340" type="line"/>
      <point x="1167" y="811" type="line"/>
      <point x="274" y="1282" type="line"/>
      <point x="200" y="1171" type="line"/>
      <point x="885" y="811" type="line"/>
      <point x="200" y="451" type="line"/>
    </contour>
    <contour>
      <point x="217" y="0" type="line"/>
      <point x="1070" y="0" type="line"/>
      <point x="1070" y="132" type="line"/>
      <point x="217" y="132" type="line"/>
    </contour>
  </outline>
</glyph>
<glyph name="uniFB00" format="1">
  <advance width="1590"/>
  <unicode hex="FB00"/>
  <outline>
    <contour>
      <point x="277" y="0" type="line"/>
      <point x="448" y="0" type="line"/>
      <point x="448" y="982" type="line"/>
      <point x="956" y="982" type="line"/>
      <point x="956" y="0" type="line"/>
      <point x="1127" y="0" type="line"/>
      <point x="1127" y="982" type="line"/>
      <point x="1453" y="982" type="line"/>
      <point x="1453" y="1096" type="line"/>
      <point x="1127" y="1096" type="line"/>
      <point x="1127" y="1174" type="line" smooth="yes"/>
      <point x="1127" y="1392"/>
      <point x="1228" y="1416"/>
      <point x="1299" y="1417" type="curve" smooth="yes"/>
      <point x="1337" y="1418"/>
      <point x="1401" y="1402"/>
      <point x="1448" y="1384" type="curve"/>
      <point x="1485" y="1500" type="line"/>
      <point x="1419" y="1527"/>
      <point x="1348" y="1544"/>
      <point x="1281" y="1546" type="curve" smooth="yes"/>
      <point x="1132" y="1550"/>
      <point x="956" y="1470"/>
      <point x="956" y="1181" type="curve" smooth="yes"/>
      <point x="956" y="1096" type="line"/>
      <point x="448" y="1096" type="line"/>
      <point x="448" y="1174" type="line" smooth="yes"/>
      <point x="448" y="1392"/>
      <point x="549" y="1416"/>
      <point x="620" y="1417" type="curve" smooth="yes"/>
      <point x="658" y="1418"/>
      <point x="722" y="1402"/>
      <point x="769" y="1384" type="curve"/>
      <point x="806" y="1500" type="line"/>
      <point x="740" y="1527"/>
      <point x="669" y="1544"/>
      <point x="602" y="1546" type="curve" smooth="yes"/>
      <point x="453" y="1550"/>
      <point x="277" y="1470"/>
      <point x="277" y="1181" type="curve" smooth="yes"/>
      <point x="277" y="1096" type="line"/>
      <point x="86" y="1096" type="line"/>
      <point x="86" y="982" type="line"/>
      <point x="277" y="982" type="line"/>
    </contour>
  </outline>
</glyph>
<glyph name="uniFB01" format="1">
  <advance width="1159"/>
  <unicode hex="FB01"/>
  <outline>
    <contour>
      <point x="192" y="0" type="line"/>
      <point x="368" y="0" type="line"/>
      <point x="368" y="983" type="line"/>
      <point x="838" y="983" type="line"/>
      <point x="838" y="0" type="line"/>
      <point x="1006" y="0" type="line"/>
      <point x="1006" y="1096" type="line"/>
      <point x="368" y="1096" type="line"/>
      <point x="368" y="1176" type="line" smooth="yes"/>
      <point x="368" y="1394"/>
      <point x="469" y="1418"/>
      <point x="539" y="1419" type="curve" smooth="yes"/>
      <point x="578" y="1420"/>
      <point x="641" y="1404"/>
      <point x="688" y="1386" type="curve"/>
      <point x="724" y="1502" type="line"/>
      <point x="658" y="1529"/>
      <point x="588" y="1546"/>
      <point x="521" y="1548" type="curve" smooth="yes"/>
      <point x="372" y="1552"/>
      <point x="192" y="1472"/>
      <point x="192" y="1183" type="curve" smooth="yes"/>
      <point x="192" y="1096" type="line"/>
      <point x="4" y="1096" type="line"/>
      <point x="4" y="983" type="line"/>
      <point x="192" y="983" type="line"/>
    </contour>
    <contour>
      <point x="926" y="1266" type="curve" smooth="yes"/>
      <point x="986" y="1266"/>
      <point x="1026" y="1315"/>
      <point x="1026" y="1372" type="curve" smooth="yes"/>
      <point x="1026" y="1429"/>
      <point x="986" y="1480"/>
      <point x="926" y="1480" type="curve" smooth="yes"/>
      <point x="868" y="1480"/>
      <point x="822" y="1429"/>
      <point x="822" y="1372" type="curve" smooth="yes"/>
      <point x="822" y="1315"/>
      <point x="867" y="1266"/>
    </contour>
  </outline>
</glyph>
<glyph name="uniFB03" format="1">
  <advance width="2125"/>
  <unicode hex="FB03"/>
  <outline>
    <contour>
      <point x="277" y="0" type="line"/>
      <point x="448" y="0" type="line"/>
      <point x="448" y="982" type="line"/>
      <point x="956" y="982" type="line"/>
      <point x="956" y="0" type="line"/>
      <point x="1127" y="0" type="line"/>
      <point x="1127" y="982" type="line"/>
      <point x="1662" y="982" type="line"/>
      <point x="1662" y="0" type="line"/>
      <point x="1833" y="0" type="line"/>
      <point x="1833" y="1096" type="line"/>
      <point x="1127" y="1096" type="line"/>
      <point x="1127" y="1176" type="line" smooth="yes"/>
      <point x="1127" y="1394"/>
      <point x="1228" y="1418"/>
      <point x="1299" y="1419" type="curve" smooth="yes"/>
      <point x="1337" y="1420"/>
      <point x="1401" y="1404"/>
      <point x="1448" y="1386" type="curve"/>
      <point x="1485" y="1502" type="line"/>
      <point x="1419" y="1529"/>
      <point x="1348" y="1546"/>
      <point x="1281" y="1548" type="curve" smooth="yes"/>
      <point x="1132" y="1552"/>
      <point x="956" y="1472"/>
      <point x="956" y="1183" type="curve" smooth="yes"/>
      <point x="956" y="1096" type="line"/>
      <point x="448" y="1096" type="line"/>
      <point x="448" y="1176" type="line" smooth="yes"/>
      <point x="448" y="1394"/>
      <point x="549" y="1418"/>
      <point x="620" y="1419" type="curve" smooth="yes"/>
      <point x="658" y="1420"/>
      <point x="722" y="1404"/>
      <point x="769" y="1386" type="curve"/>
      <point x="806" y="1502" type="line"/>
      <point x="740" y="1529"/>
      <point x="669" y="1546"/>
      <point x="602" y="1548" type="curve" smooth="yes"/>
      <point x="453" y="1552"/>
      <point x="277" y="1472"/>
      <point x="277" y="1183" type="curve" smooth="yes"/>
      <point x="277" y="1096" type="line"/>
      <point x="86" y="1096" type="line"/>
      <point x="86" y="982" type="line"/>
      <point x="277" y="982" type="line"/>
    </contour>
    <contour>
      <point x="1753" y="1266" type="curve" smooth="yes"/>
      <point x="1813" y="1266"/>
      <point x="1853" y="1315"/>
      <point x="1853" y="1372" type="curve" smooth="yes"/>
      <point x="1853" y="1429"/>
      <point x="1813" y="1480"/>
      <point x="1753" y="1480" type="curve" smooth="yes"/>
      <point x="1694" y="1480"/>
      <point x="1649" y="1429"/>
      <point x="1649" y="1372" type="curve" smooth="yes"/>
      <point x="1649" y="1315"/>
      <point x="1693" y="1266"/>
    </contour>
  </outline>
</glyph>
<glyph name="uniFB04" format="1">
  <advance width="2112"/>
  <unicode hex="FB04"/>
  <outline>
    <contour>
      <point x="277" y="0" type="line"/>
      <point x="448" y="0" type="line"/>
      <point x="448" y="982" type="line"/>
      <point x="976" y="982" type="line"/>
      <point x="976" y="0" type="line"/>
      <point x="1152" y="0" type="line"/>
      <point x="1152" y="982" type="line"/>
      <point x="1479" y="982" type="line"/>
      <point x="1479" y="1096" type="line"/>
      <point x="1152" y="1096" type="line"/>
      <point x="1152" y="1176" type="line" smooth="yes"/>
      <point x="1152" y="1363"/>
      <point x="1279" y="1420"/>
      <point x="1429" y="1420" type="curve" smooth="yes"/>
      <point x="1505" y="1420"/>
      <point x="1585" y="1406"/>
      <point x="1658" y="1386" type="curve"/>
      <point x="1658" y="0" type="line"/>
      <point x="1829" y="0" type="line"/>
      <point x="1829" y="1475" type="line"/>
      <point x="1683" y="1523"/>
      <point x="1540" y="1550"/>
      <point x="1414" y="1550" type="curve" smooth="yes"/>
      <point x="1160" y="1550"/>
      <point x="976" y="1442"/>
      <point x="976" y="1183" type="curve" smooth="yes"/>
      <point x="976" y="1096" type="line"/>
      <point x="448" y="1096" type="line"/>
      <point x="448" y="1176" type="line" smooth="yes"/>
      <point x="448" y="1394"/>
      <point x="549" y="1418"/>
      <point x="620" y="1419" type="curve" smooth="yes"/>
      <point x="658" y="1420"/>
      <point x="722" y="1404"/>
      <point x="769" y="1386" type="curve"/>
      <point x="806" y="1502" type="line"/>
      <point x="740" y="1529"/>
      <point x="669" y="1546"/>
      <point x="602" y="1548" type="curve" smooth="yes"/>
      <point x="453" y="1552"/>
      <point x="277" y="1472"/>
      <point x="277" y="1183" type="curve" smooth="yes"/>
      <point x="277" y="1096" type="line"/>
      <point x="86" y="1096" type="line"/>
      <point x="86" y="982" type="line"/>
      <point x="277" y="982" type="line"/>
    </contour>
  </outline>
</glyph>
